999
dxfrw 0.6.3
  0
SECTION
  2
HEADER
  9
$ACADVER
  1
AC1021
  9
$DWGCODEPAGE
  3
ANSI_1252
  9
$INSBASE
 10
0
 20
0
 30
0
  9
$EXTMIN
 10
-113
 20
-70
 30
0
  9
$EXTMAX
 10
121.088843501818
 20
99.34027777777777
 30
0
  9
$LIMMIN
 10
0
 20
0
  9
$LIMMAX
 10
420
 20
297
  9
$ORTHOMODE
 70
    0
  9
$REGENMODE
 70
    1
  9
$FILLMODE
 70
    1
  9
$QTEXTMODE
 70
    0
  9
$MIRRTEXT
 70
    0
  9
$LTSCALE
 40
1
  9
$ATTMODE
 70
    0
  9
$TEXTSIZE
 40
2.5
  9
$TRACEWID
 40
15.68
  9
$TEXTSTYLE
  7
STANDARD
  9
$CLAYER
  8
dim frame 140mm
  9
$CELTYPE
  6
BYLAYER
  9
$CECOLOR
 62
  256
  9
$CELTSCALE
 40
1
  9
$DISPSILH
 70
    0
  9
$DIMSCALE
 40
2.5
  9
$DIMASZ
 40
2.5
  9
$DIMEXO
 40
0.625
  9
$DIMDLI
 40
3.75
  9
$DIMRND
 40
0
  9
$DIMDLE
 40
0
  9
$DIMEXE
 40
1.25
  9
$DIMTP
 40
0
  9
$DIMTM
 40
0
  9
$DIMTXT
 40
2.5
  9
$DIMCEN
 40
2.5
  9
$DIMTSZ
 40
0
  9
$DIMTOL
 70
    0
  9
$DIMLIM
 70
    0
  9
$DIMTIH
 70
    0
  9
$DIMTOH
 70
    0
  9
$DIMSE1
 70
    0
  9
$DIMSE2
 70
    0
  9
$DIMTAD
 70
    1
  9
$DIMZIN
 70
    1
  9
$DIMBLK
  1

  9
$DIMASO
 70
    1
  9
$DIMSHO
 70
    1
  9
$DIMPOST
  1

  9
$DIMAPOST
  1

  9
$DIMALT
 70
    0
  9
$DIMALTD
 70
    3
  9
$DIMALTF
 40
0.03937
  9
$DIMLFAC
 40
1
  9
$DIMTOFL
 70
    1
  9
$DIMTVP
 40
0
  9
$DIMTIX
 70
    0
  9
$DIMSOXD
 70
    0
  9
$DIMSAH
 70
    0
  9
$DIMBLK1
  1

  9
$DIMBLK2
  1

  9
$DIMSTYLE
  2
STANDARD
  9
$DIMCLRD
 70
    0
  9
$DIMCLRE
 70
    0
  9
$DIMCLRT
 70
    0
  9
$DIMTFAC
 40
1
  9
$DIMGAP
 40
0.625
  9
$DIMJUST
 70
    0
  9
$DIMSD1
 70
    0
  9
$DIMSD2
 70
    0
  9
$DIMTOLJ
 70
    0
  9
$DIMTZIN
 70
    8
  9
$DIMALTZ
 70
    0
  9
$DIMALTTZ
 70
    0
  9
$DIMUPT
 70
    0
  9
$DIMDEC
 70
    1
  9
$DIMTDEC
 70
    2
  9
$DIMALTU
 70
    2
  9
$DIMALTTD
 70
    3
  9
$DIMTXSTY
  7
standard
  9
$DIMAUNIT
 70
    0
  9
$DIMADEC
 70
    2
  9
$DIMALTRND
 40
0
  9
$DIMAZIN
 70
    0
  9
$DIMDSEP
 70
    0
  9
$DIMATFIT
 70
    3
  9
$DIMFRAC
 70
    0
  9
$DIMLDRBLK
  1
STANDARD
  9
$DIMLUNIT
 70
    2
  9
$DIMLWD
 70
   -2
  9
$DIMLWE
 70
   -2
  9
$DIMTMOVE
 70
    0
  9
$DIMFXL
 40
1
  9
$DIMFXLON
 70
    0
  9
$DIMJOGANG
 40
0.7854
  9
$DIMTFILL
 70
    0
  9
$DIMTFILLCLR
 70
    0
  9
$DIMARCSYM
 70
    0
  9
$DIMLTYPE
  6

  9
$DIMLTEX1
  6

  9
$DIMLTEX2
  6

  9
$LUNITS
 70
    2
  9
$LUPREC
 70
    4
  9
$SKETCHINC
 40
1
  9
$FILLETRAD
 40
0
  9
$AUNITS
 70
    0
  9
$AUPREC
 70
    2
  9
$MENU
  1
.
  9
$ELEVATION
 40
0
  9
$PELEVATION
 40
0
  9
$THICKNESS
 40
0
  9
$LIMCHECK
 70
    0
  9
$CHAMFERA
 40
0
  9
$CHAMFERB
 40
0
  9
$CHAMFERC
 40
0
  9
$CHAMFERD
 40
0
  9
$SKPOLY
 70
    0
  9
$USRTIMER
 70
    1
  9
$ANGBASE
 50
0
  9
$ANGDIR
 70
    0
  9
$PDMODE
 70
   34
  9
$PDSIZE
 40
0
  9
$PLINEWID
 40
0
  9
$SPLFRAME
 70
    0
  9
$SPLINETYPE
 70
    2
  9
$SPLINESEGS
 70
    8
  9
$HANDSEED
  5
20000
  9
$SURFTAB1
 70
    6
  9
$SURFTAB2
 70
    6
  9
$SURFTYPE
 70
    6
  9
$SURFU
 70
    6
  9
$SURFV
 70
    6
  9
$UCSBASE
  2

  9
$UCSNAME
  2

  9
$UCSORG
 10
0
 20
0
 30
0
  9
$UCSXDIR
 10
1
 20
0
 30
0
  9
$UCSYDIR
 10
0
 20
1
 30
0
  9
$UCSORTHOREF
  2

  9
$UCSORTHOVIEW
 70
    0
  9
$UCSORGTOP
 10
0
 20
0
 30
0
  9
$UCSORGBOTTOM
 10
0
 20
0
 30
0
  9
$UCSORGLEFT
 10
0
 20
0
 30
0
  9
$UCSORGRIGHT
 10
0
 20
0
 30
0
  9
$UCSORGFRONT
 10
0
 20
0
 30
0
  9
$UCSORGBACK
 10
0
 20
0
 30
0
  9
$PUCSBASE
  2

  9
$PUCSNAME
  2

  9
$PUCSORG
 10
0
 20
0
 30
0
  9
$PUCSXDIR
 10
1
 20
0
 30
0
  9
$PUCSYDIR
 10
0
 20
1
 30
0
  9
$PUCSORTHOREF
  2

  9
$PUCSORTHOVIEW
 70
    0
  9
$PUCSORGTOP
 10
0
 20
0
 30
0
  9
$PUCSORGBOTTOM
 10
0
 20
0
 30
0
  9
$PUCSORGLEFT
 10
0
 20
0
 30
0
  9
$PUCSORGRIGHT
 10
0
 20
0
 30
0
  9
$PUCSORGFRONT
 10
0
 20
0
 30
0
  9
$PUCSORGBACK
 10
0
 20
0
 30
0
  9
$USERI1
 70
    0
  9
$USERI2
 70
    0
  9
$USERI3
 70
    0
  9
$USERI4
 70
    0
  9
$USERI5
 70
    0
  9
$USERR1
 40
0
  9
$USERR2
 40
0
  9
$USERR3
 40
0
  9
$USERR4
 40
0
  9
$USERR5
 40
0
  9
$WORLDVIEW
 70
    1
  9
$SHADEDGE
 70
    3
  9
$SHADEDIF
 70
   70
  9
$TILEMODE
 70
    1
  9
$MAXACTVP
 70
   64
  9
$PINSBASE
 10
144.455578249091
 20
90.32986111111111
 30
0
  9
$PLIMCHECK
 70
    0
  9
$PEXTMIN
 10
0
 20
0
 30
0
  9
$PEXTMAX
 10
0
 20
0
 30
0
  9
$GRIDMODE
 70
    1
  9
$SNAPSTYLE
 70
    0
  9
$GRIDUNIT
 10
0
 20
0
  9
$PLIMMIN
 10
0
 20
0
  9
$PLIMMAX
 10
297
 20
210
  9
$UNITMODE
 70
    0
  9
$VISRETAIN
 70
    1
  9
$PLINEGEN
 70
    0
  9
$PSLTSCALE
 70
    1
  9
$TREEDEPTH
 70
 3020
  9
$CMLSTYLE
  2
Standard
  9
$CMLJUST
 70
    0
  9
$CMLSCALE
 40
20
  9
$PROXYGRAPHICS
 70
    1
  9
$MEASUREMENT
 70
    1
  9
$CELWEIGHT
370
   -1
  9
$ENDCAPS
280
    0
  9
$JOINSTYLE
280
    0
  9
$LWDISPLAY
290
    0
  9
$INSUNITS
 70
    0
  9
$HYPERLINKBASE
  1

  9
$STYLESHEET
  1

  9
$XEDIT
290
    1
  9
$CEPSNTYPE
380
    0
  9
$PSTYLEMODE
290
    1
  9
$EXTNAMES
290
    1
  9
$PSVPSCALE
 40
1
  9
$OLESTARTUP
290
    0
  9
$SORTENTS
280
  127
  9
$INDEXCTL
280
    0
  9
$HIDETEXT
280
    1
  9
$XCLIPFRAME
290
    0
  9
$HALOGAP
280
    0
  9
$OBSCOLOR
 70
  257
  9
$OBSLTYPE
280
    0
  9
$INTERSECTIONDISPLAY
280
    0
  9
$INTERSECTIONCOLOR
 70
  257
  9
$DIMASSOC
280
    1
  9
$PROJECTNAME
  1

  9
$CAMERADISPLAY
290
    0
  9
$LENSLENGTH
 40
50
  9
$CAMERAHEIGHT
 40
0
  9
$STEPSPERSEC
 40
2
  9
$STEPSIZE
 40
50
  9
$3DDWFPREC
 40
2
  9
$PSOLWIDTH
 40
5
  9
$PSOLHEIGHT
 40
80
  9
$LOFTANG1
 40
1.570796326794897
  9
$LOFTANG2
 40
1.570796326794897
  9
$LOFTMAG1
 40
0
  9
$LOFTMAG2
 40
0
  9
$LOFTPARAM
 70
    7
  9
$LOFTNORMALS
280
    1
  9
$LATITUDE
 40
1
  9
$LONGITUDE
 40
1
  9
$NORTHDIRECTION
 40
0
  9
$TIMEZONE
 70
-8000
  9
$LIGHTGLYPHDISPLAY
280
    1
  9
$TILEMODELIGHTSYNCH
280
    1
  9
$SOLIDHIST
280
    1
  9
$SHOWHIST
280
    1
  9
$DWFFRAME
280
    2
  9
$DGNFRAME
280
    0
  9
$REALWORLDSCALE
290
    1
  9
$INTERFERECOLOR
 62
    1
  9
$CSHADOW
280
    0
  9
$SHADOWPLANELOCATION
 40
0
  0
ENDSEC
  0
SECTION
  2
CLASSES
  0
ENDSEC
  0
SECTION
  2
TABLES
  0
TABLE
  2
VPORT
  5
8
330
0
100
AcDbSymbolTable
 70
    1
  0
VPORT
  5
31
330
2
100
AcDbSymbolTableRecord
100
AcDbViewportTableRecord
  2
*ACTIVE
 70
    0
 10
0
 20
0
 11
1
 21
1
 12
-72.41749046197911
 22
-38.17999497135862
 13
0
 23
0
 14
10
 24
10
 15
10
 25
10
 16
0
 26
0
 36
1
 17
0
 27
0
 37
0
 40
10.78999857886222
 41
2.096153846153846
 42
50
 43
0
 44
0
 50
0
 51
0
 71
    0
 72
  100
 73
    1
 74
    3
 75
    0
 76
    1
 77
    0
 78
    0
281
    0
 65
    1
110
0
120
0
130
0
111
1
121
0
131
0
112
0
122
1
132
0
 79
    0
146
0
348
10020
 60
    7
 61
    5
292
1
282
    1
141
0
142
0
 63
  250
421
3358443
  0
ENDTAB
  0
TABLE
  2
LTYPE
  5
5
330
0
100
AcDbSymbolTable
 70
    4
  0
LTYPE
  5
14
330
5
100
AcDbSymbolTableRecord
100
AcDbLinetypeTableRecord
  2
ByBlock
 70
    0
  3

 72
   65
 73
    0
 40
0
  0
LTYPE
  5
15
330
5
100
AcDbSymbolTableRecord
100
AcDbLinetypeTableRecord
  2
ByLayer
 70
    0
  3

 72
   65
 73
    0
 40
0
  0
LTYPE
  5
16
330
5
100
AcDbSymbolTableRecord
100
AcDbLinetypeTableRecord
  2
Continuous
 70
    0
  3
Solid line
 72
   65
 73
    0
 40
0
  0
LTYPE
  5
32
330
5
100
AcDbSymbolTableRecord
100
AcDbLinetypeTableRecord
  2
DOT
 70
    0
  3
Dot . . . . . . . . . . . . . . . . . . . . . .
 72
   65
 73
    2
 40
6.35
 49
0
 74
    0
 49
-6.35
 74
    0
  0
LTYPE
  5
33
330
5
100
AcDbSymbolTableRecord
100
AcDbLinetypeTableRecord
  2
DOTTINY
 70
    0
  3
Dot (.15x) .....................................
 72
   65
 73
    2
 40
0.9525
 49
0
 74
    0
 49
-0.9525
 74
    0
  0
LTYPE
  5
34
330
5
100
AcDbSymbolTableRecord
100
AcDbLinetypeTableRecord
  2
DOT2
 70
    0
  3
Dot (.5x) .....................................
 72
   65
 73
    2
 40
3.175
 49
0
 74
    0
 49
-3.175
 74
    0
  0
LTYPE
  5
35
330
5
100
AcDbSymbolTableRecord
100
AcDbLinetypeTableRecord
  2
DOTX2
 70
    0
  3
Dot (2x) .  .  .  .  .  .  .  .  .  .  .  .  .
 72
   65
 73
    2
 40
12.7
 49
0
 74
    0
 49
-12.7
 74
    0
  0
LTYPE
  5
36
330
5
100
AcDbSymbolTableRecord
100
AcDbLinetypeTableRecord
  2
DASHED
 70
    0
  3
Dashed _ _ _ _ _ _ _ _ _ _ _ _ _ _ _ _ _
 72
   65
 73
    2
 40
19.05
 49
12.7
 74
    0
 49
-6.35
 74
    0
  0
LTYPE
  5
37
330
5
100
AcDbSymbolTableRecord
100
AcDbLinetypeTableRecord
  2
DASHEDTINY
 70
    0
  3
Dashed (.15x) _ _ _ _ _ _ _ _ _ _ _ _ _ _ _ _ _
 72
   65
 73
    2
 40
2.8575
 49
1.905
 74
    0
 49
-0.9525
 74
    0
  0
LTYPE
  5
38
330
5
100
AcDbSymbolTableRecord
100
AcDbLinetypeTableRecord
  2
DASHED2
 70
    0
  3
Dashed (.5x) _ _ _ _ _ _ _ _ _ _ _ _ _ _ _ _ _
 72
   65
 73
    2
 40
9.524999999999999
 49
6.35
 74
    0
 49
-3.175
 74
    0
  0
LTYPE
  5
39
330
5
100
AcDbSymbolTableRecord
100
AcDbLinetypeTableRecord
  2
DASHEDX2
 70
    0
  3
Dashed (2x) ____  ____  ____  ____  ____  ___
 72
   65
 73
    2
 40
38.09999999999999
 49
25.4
 74
    0
 49
-12.7
 74
    0
  0
LTYPE
  5
3A
330
5
100
AcDbSymbolTableRecord
100
AcDbLinetypeTableRecord
  2
DASHDOT
 70
    0
  3
Dash dot __ . __ . __ . __ . __ . __ . __ . __
 72
   65
 73
    4
 40
25.4
 49
12.7
 74
    0
 49
-6.35
 74
    0
 49
0
 74
    0
 49
-6.35
 74
    0
  0
LTYPE
  5
3B
330
5
100
AcDbSymbolTableRecord
100
AcDbLinetypeTableRecord
  2
DASHDOTTINY
 70
    0
  3
Dash dot (.15x) _._._._._._._._._._._._._._._.
 72
   65
 73
    4
 40
3.81
 49
1.905
 74
    0
 49
-0.9525
 74
    0
 49
0
 74
    0
 49
-0.9525
 74
    0
  0
LTYPE
  5
3C
330
5
100
AcDbSymbolTableRecord
100
AcDbLinetypeTableRecord
  2
DASHDOT2
 70
    0
  3
Dash dot (.5x) _._._._._._._._._._._._._._._.
 72
   65
 73
    4
 40
12.7
 49
6.35
 74
    0
 49
-3.175
 74
    0
 49
0
 74
    0
 49
-3.175
 74
    0
  0
LTYPE
  5
3D
330
5
100
AcDbSymbolTableRecord
100
AcDbLinetypeTableRecord
  2
DASHDOTX2
 70
    0
  3
Dash dot (2x) ____  .  ____  .  ____  .  ___
 72
   65
 73
    4
 40
50.8
 49
25.4
 74
    0
 49
-12.7
 74
    0
 49
0
 74
    0
 49
-12.7
 74
    0
  0
LTYPE
  5
3E
330
5
100
AcDbSymbolTableRecord
100
AcDbLinetypeTableRecord
  2
DIVIDE
 70
    0
  3
Divide ____ . . ____ . . ____ . . ____ . . ____
 72
   65
 73
    6
 40
31.75
 49
12.7
 74
    0
 49
-6.35
 74
    0
 49
0
 74
    0
 49
-6.35
 74
    0
 49
0
 74
    0
 49
-6.35
 74
    0
  0
LTYPE
  5
3F
330
5
100
AcDbSymbolTableRecord
100
AcDbLinetypeTableRecord
  2
DIVIDETINY
 70
    0
  3
Divide (.15x) __..__..__..__..__..__..__..__.._
 72
   65
 73
    6
 40
4.7625
 49
1.905
 74
    0
 49
-0.9525
 74
    0
 49
0
 74
    0
 49
-0.9525
 74
    0
 49
0
 74
    0
 49
-0.9525
 74
    0
  0
LTYPE
  5
40
330
5
100
AcDbSymbolTableRecord
100
AcDbLinetypeTableRecord
  2
DIVIDE2
 70
    0
  3
Divide (.5x) __..__..__..__..__..__..__..__.._
 72
   65
 73
    6
 40
15.875
 49
6.35
 74
    0
 49
-3.175
 74
    0
 49
0
 74
    0
 49
-3.175
 74
    0
 49
0
 74
    0
 49
-3.175
 74
    0
  0
LTYPE
  5
41
330
5
100
AcDbSymbolTableRecord
100
AcDbLinetypeTableRecord
  2
DIVIDEX2
 70
    0
  3
Divide (2x) ________  .  .  ________  .  .  _
 72
   65
 73
    6
 40
63.5
 49
25.4
 74
    0
 49
-12.7
 74
    0
 49
0
 74
    0
 49
-12.7
 74
    0
 49
0
 74
    0
 49
-12.7
 74
    0
  0
LTYPE
  5
42
330
5
100
AcDbSymbolTableRecord
100
AcDbLinetypeTableRecord
  2
BORDER
 70
    0
  3
Border __ __ . __ __ . __ __ . __ __ . __ __ .
 72
   65
 73
    6
 40
44.45
 49
12.7
 74
    0
 49
-6.35
 74
    0
 49
12.7
 74
    0
 49
-6.35
 74
    0
 49
0
 74
    0
 49
-6.35
 74
    0
  0
LTYPE
  5
43
330
5
100
AcDbSymbolTableRecord
100
AcDbLinetypeTableRecord
  2
BORDERTINY
 70
    0
  3
Border (.15x) __.__.__.__.__.__.__.__.__.__.__.
 72
   65
 73
    6
 40
6.6675
 49
1.905
 74
    0
 49
-0.9525
 74
    0
 49
1.905
 74
    0
 49
-0.9525
 74
    0
 49
0
 74
    0
 49
-0.9525
 74
    0
  0
LTYPE
  5
44
330
5
100
AcDbSymbolTableRecord
100
AcDbLinetypeTableRecord
  2
BORDER2
 70
    0
  3
Border (.5x) __.__.__.__.__.__.__.__.__.__.__.
 72
   65
 73
    6
 40
22.225
 49
6.35
 74
    0
 49
-3.175
 74
    0
 49
6.35
 74
    0
 49
-3.175
 74
    0
 49
0
 74
    0
 49
-3.175
 74
    0
  0
LTYPE
  5
45
330
5
100
AcDbSymbolTableRecord
100
AcDbLinetypeTableRecord
  2
BORDERX2
 70
    0
  3
Border (2x) ____  ____  .  ____  ____  .  ___
 72
   65
 73
    6
 40
88.89999999999999
 49
25.4
 74
    0
 49
-12.7
 74
    0
 49
25.4
 74
    0
 49
-12.7
 74
    0
 49
0
 74
    0
 49
-12.7
 74
    0
  0
LTYPE
  5
46
330
5
100
AcDbSymbolTableRecord
100
AcDbLinetypeTableRecord
  2
CENTER
 70
    0
  3
Center ____ _ ____ _ ____ _ ____ _ ____ _ ____
 72
   65
 73
    4
 40
50.8
 49
31.75
 74
    0
 49
-6.35
 74
    0
 49
6.35
 74
    0
 49
-6.35
 74
    0
  0
LTYPE
  5
47
330
5
100
AcDbSymbolTableRecord
100
AcDbLinetypeTableRecord
  2
CENTERTINY
 70
    0
  3
Center (.15x) ___ _ ___ _ ___ _ ___ _ ___ _ ___
 72
   65
 73
    4
 40
7.62
 49
4.7625
 74
    0
 49
-0.9525
 74
    0
 49
0.9525
 74
    0
 49
-0.9525
 74
    0
  0
LTYPE
  5
48
330
5
100
AcDbSymbolTableRecord
100
AcDbLinetypeTableRecord
  2
CENTER2
 70
    0
  3
Center (.5x) ___ _ ___ _ ___ _ ___ _ ___ _ ___
 72
   65
 73
    4
 40
28.575
 49
19.05
 74
    0
 49
-3.175
 74
    0
 49
3.175
 74
    0
 49
-3.175
 74
    0
  0
LTYPE
  5
49
330
5
100
AcDbSymbolTableRecord
100
AcDbLinetypeTableRecord
  2
CENTERX2
 70
    0
  3
Center (2x) ________  __  ________  __  _____
 72
   65
 73
    4
 40
101.6
 49
63.5
 74
    0
 49
-12.7
 74
    0
 49
12.7
 74
    0
 49
-12.7
 74
    0
  0
ENDTAB
  0
TABLE
  2
LAYER
  5
2
330
0
100
AcDbSymbolTable
 70
    1
  0
LAYER
  5
10
330
2
100
AcDbSymbolTableRecord
100
AcDbLayerTableRecord
  2
0
 70
    1
 62
    3
  6
CONTINUOUS
370
    0
390
F
  0
LAYER
  5
4A
330
2
100
AcDbSymbolTableRecord
100
AcDbLayerTableRecord
  2
center
 70
    0
 62
    1
  6
CONTINUOUS
370
    0
390
F
  0
LAYER
  5
4B
330
2
100
AcDbSymbolTableRecord
100
AcDbLayerTableRecord
  2
dim frame 120mm
 70
    1
 62
  253
420
10526884
  6
CONTINUOUS
370
    0
390
F
  0
LAYER
  5
4C
330
2
100
AcDbSymbolTableRecord
100
AcDbLayerTableRecord
  2
dim frame 140mm
 70
    0
 62
  253
420
10526884
  6
CONTINUOUS
370
    0
390
F
  0
LAYER
  5
4D
330
2
100
AcDbSymbolTableRecord
100
AcDbLayerTableRecord
  2
dim frame 156mm
 70
    1
 62
  253
420
10526884
  6
CONTINUOUS
370
    0
390
F
  0
LAYER
  5
4E
330
2
100
AcDbSymbolTableRecord
100
AcDbLayerTableRecord
  2
dim hours 50mm
 70
    1
 62
  253
420
10526884
  6
CONTINUOUS
370
    0
390
F
  0
LAYER
  5
4F
330
2
100
AcDbSymbolTableRecord
100
AcDbLayerTableRecord
  2
dim hours 52.5mm
 70
    0
 62
  253
420
10526884
  6
CONTINUOUS
370
    0
390
F
  0
LAYER
  5
50
330
2
100
AcDbSymbolTableRecord
100
AcDbLayerTableRecord
  2
dim leds 2mm ED
 70
    0
 62
  253
420
10526884
  6
CONTINUOUS
370
    0
390
F
  0
LAYER
  5
51
330
2
100
AcDbSymbolTableRecord
100
AcDbLayerTableRecord
  2
dim leds 2mm non-ED
 70
    1
 62
  253
420
10526884
  6
CONTINUOUS
370
    0
390
F
  0
LAYER
  5
52
330
2
100
AcDbSymbolTableRecord
100
AcDbLayerTableRecord
  2
dim leds 3mm ED
 70
    1
 62
  253
420
10526884
  6
CONTINUOUS
370
    0
390
F
  0
LAYER
  5
53
330
2
100
AcDbSymbolTableRecord
100
AcDbLayerTableRecord
  2
frame 120mm
 70
    1
 62
    5
  6
CONTINUOUS
370
    0
390
F
  0
LAYER
  5
54
330
2
100
AcDbSymbolTableRecord
100
AcDbLayerTableRecord
  2
frame 140mm
 70
    0
 62
    5
  6
CONTINUOUS
370
    0
390
F
  0
LAYER
  5
55
330
2
100
AcDbSymbolTableRecord
100
AcDbLayerTableRecord
  2
frame 156mm
 70
    1
 62
    5
  6
CONTINUOUS
370
    0
390
F
  0
LAYER
  5
56
330
2
100
AcDbSymbolTableRecord
100
AcDbLayerTableRecord
  2
hours 50mm
 70
    1
 62
    6
  6
CONTINUOUS
370
    0
390
F
  0
LAYER
  5
57
330
2
100
AcDbSymbolTableRecord
100
AcDbLayerTableRecord
  2
hours 52.5mm
 70
    0
 62
    6
  6
CONTINUOUS
370
    0
390
F
  0
LAYER
  5
58
330
2
100
AcDbSymbolTableRecord
100
AcDbLayerTableRecord
  2
leds 2mm ED
 70
    0
 62
    3
  6
CONTINUOUS
370
    0
390
F
  0
LAYER
  5
59
330
2
100
AcDbSymbolTableRecord
100
AcDbLayerTableRecord
  2
leds 2mm non-ED
 70
    1
 62
    3
  6
CONTINUOUS
370
    0
390
F
  0
ENDTAB
  0
TABLE
  2
STYLE
  5
3
330
0
100
AcDbSymbolTable
 70
    3
  0
STYLE
  5
5A
330
2
100
AcDbSymbolTableRecord
100
AcDbTextStyleTableRecord
  2
Standard
 70
    0
 40
0
 41
1
 50
0
 71
    0
 42
1
  3
txt
  4

  0
ENDTAB
  0
TABLE
  2
VIEW
  5
6
330
0
100
AcDbSymbolTable
 70
    0
  0
ENDTAB
  0
TABLE
  2
UCS
  5
7
330
0
100
AcDbSymbolTable
 70
    0
  0
ENDTAB
  0
TABLE
  2
APPID
  5
9
330
0
100
AcDbSymbolTable
 70
    1
  0
APPID
  5
12
330
9
100
AcDbSymbolTableRecord
100
AcDbRegAppTableRecord
  2
ACAD
 70
    0
  0
APPID
  5
5B
330
9
100
AcDbSymbolTableRecord
100
AcDbRegAppTableRecord
  2
LibreCad
 70
    0
  0
ENDTAB
  0
TABLE
  2
DIMSTYLE
  5
A
330
0
100
AcDbSymbolTable
 70
    1
100
AcDbDimStyleTable
 71
    1
  0
DIMSTYLE
105
5C
330
A
100
AcDbSymbolTableRecord
100
AcDbDimStyleTableRecord
  2
Standard
 70
    0
 40
2.5
 41
2.5
 42
0.625
 43
0.38
 44
1.25
 45
0
 46
0
 47
0
 48
0
 49
1
140
2.5
141
0.09
142
0
143
25.4
144
1
145
0
146
1
147
0.625
148
0
 71
    0
 72
    0
 73
    0
 74
    1
 75
    0
 76
    0
 77
    0
 78
    1
 79
    0
170
    0
171
    2
172
    0
173
    0
174
    0
175
    0
176
    0
177
    0
178
    0
179
    2
271
    1
272
    4
273
    2
274
    2
275
    0
276
    0
277
    2
278
    0
279
    0
280
    0
281
    0
282
    0
283
    1
284
    0
285
    0
286
    0
288
    0
289
    3
340
standard
341

371
   -2
372
   -2
  0
ENDTAB
  0
TABLE
  2
BLOCK_RECORD
  5
1
330
0
100
AcDbSymbolTable
 70
    2
  0
BLOCK_RECORD
  5
1F
330
1
100
AcDbSymbolTableRecord
100
AcDbBlockTableRecord
  2
*Model_Space
 70
    0
280
    1
281
    0
  0
BLOCK_RECORD
  5
1E
330
1
100
AcDbSymbolTableRecord
100
AcDbBlockTableRecord
  2
*Paper_Space
 70
    0
280
    1
281
    0
  0
BLOCK_RECORD
  5
5D
330
1
100
AcDbSymbolTableRecord
100
AcDbBlockTableRecord
  2
*D16
 70
    0
280
    1
281
    0
  0
BLOCK_RECORD
  5
60
330
1
100
AcDbSymbolTableRecord
100
AcDbBlockTableRecord
  2
*D1
 70
    0
280
    1
281
    0
  0
BLOCK_RECORD
  5
63
330
1
100
AcDbSymbolTableRecord
100
AcDbBlockTableRecord
  2
*D8
 70
    0
280
    1
281
    0
  0
BLOCK_RECORD
  5
66
330
1
100
AcDbSymbolTableRecord
100
AcDbBlockTableRecord
  2
*D3
 70
    0
280
    1
281
    0
  0
BLOCK_RECORD
  5
69
330
1
100
AcDbSymbolTableRecord
100
AcDbBlockTableRecord
  2
*D15
 70
    0
280
    1
281
    0
  0
BLOCK_RECORD
  5
6C
330
1
100
AcDbSymbolTableRecord
100
AcDbBlockTableRecord
  2
*D12
 70
    0
280
    1
281
    0
  0
BLOCK_RECORD
  5
6F
330
1
100
AcDbSymbolTableRecord
100
AcDbBlockTableRecord
  2
*D13
 70
    0
280
    1
281
    0
  0
BLOCK_RECORD
  5
72
330
1
100
AcDbSymbolTableRecord
100
AcDbBlockTableRecord
  2
*D5
 70
    0
280
    1
281
    0
  0
BLOCK_RECORD
  5
75
330
1
100
AcDbSymbolTableRecord
100
AcDbBlockTableRecord
  2
*D17
 70
    0
280
    1
281
    0
  0
BLOCK_RECORD
  5
78
330
1
100
AcDbSymbolTableRecord
100
AcDbBlockTableRecord
  2
*D2
 70
    0
280
    1
281
    0
  0
BLOCK_RECORD
  5
7B
330
1
100
AcDbSymbolTableRecord
100
AcDbBlockTableRecord
  2
*D11
 70
    0
280
    1
281
    0
  0
BLOCK_RECORD
  5
7E
330
1
100
AcDbSymbolTableRecord
100
AcDbBlockTableRecord
  2
*D6
 70
    0
280
    1
281
    0
  0
BLOCK_RECORD
  5
81
330
1
100
AcDbSymbolTableRecord
100
AcDbBlockTableRecord
  2
*D7
 70
    0
280
    1
281
    0
  0
BLOCK_RECORD
  5
84
330
1
100
AcDbSymbolTableRecord
100
AcDbBlockTableRecord
  2
*D14
 70
    0
280
    1
281
    0
  0
BLOCK_RECORD
  5
87
330
1
100
AcDbSymbolTableRecord
100
AcDbBlockTableRecord
  2
*D18
 70
    0
280
    1
281
    0
  0
BLOCK_RECORD
  5
8A
330
1
100
AcDbSymbolTableRecord
100
AcDbBlockTableRecord
  2
*D9
 70
    0
280
    1
281
    0
  0
BLOCK_RECORD
  5
8D
330
1
100
AcDbSymbolTableRecord
100
AcDbBlockTableRecord
  2
*D10
 70
    0
280
    1
281
    0
  0
BLOCK_RECORD
  5
90
330
1
100
AcDbSymbolTableRecord
100
AcDbBlockTableRecord
  2
*D4
 70
    0
280
    1
281
    0
  0
ENDTAB
  0
ENDSEC
  0
SECTION
  2
BLOCKS
  0
BLOCK
  5
20
330
1F
100
AcDbEntity
  8
0
100
AcDbBlockBegin
  2
*Model_Space
 70
    0
 10
0
 20
0
 30
0
  3
*Model_Space
  1

  0
ENDBLK
  5
21
330
1F
100
AcDbEntity
  8
0
100
AcDbBlockEnd
  0
BLOCK
  5
1C
330
1B
100
AcDbEntity
  8
0
100
AcDbBlockBegin
  2
*Paper_Space
 70
    0
 10
0
 20
0
 30
0
  3
*Paper_Space
  1

  0
ENDBLK
  5
1D
330
1F
100
AcDbEntity
  8
0
100
AcDbBlockEnd
  0
BLOCK
  5
5E
330
5D
100
AcDbEntity
  8
0
100
AcDbBlockBegin
  2
*D16
 70
    1
 10
0
 20
0
  3
*D16
  1

  0
LINE
  5
93
100
AcDbEntity
  8
dim frame 156mm
  6
ByBlock
 62
    0
370
   -2
100
AcDbLine
 10
109.5625
 20
60
 11
117.0567977109821
 21
60
  0
LINE
  5
94
100
AcDbEntity
  8
dim frame 156mm
  6
ByBlock
 62
    0
370
   -2
100
AcDbLine
 10
109.5625
 20
78
 11
117.0567977109821
 21
78
  0
LINE
  5
95
100
AcDbEntity
  8
dim frame 156mm
  6
ByBlock
 62
    0
370
   -2
100
AcDbLine
 10
113.9317977109821
 20
60
 11
113.9317977109821
 21
78
  0
SOLID
  5
96
100
AcDbEntity
  8
dim frame 156mm
  6
ByBlock
 62
    0
370
   -2
100
AcDbTrace
 10
113.9317977109821
 20
60
 30
0
 11
112.89108606655
 21
66.25
 31
0
 12
114.9725093554142
 22
66.25
 32
0
 13
114.9725093554142
 23
66.25
 33
0
  0
SOLID
  5
97
100
AcDbEntity
  8
dim frame 156mm
  6
ByBlock
 62
    0
370
   -2
100
AcDbTrace
 10
113.9317977109821
 20
78
 30
0
 11
114.9725093554142
 21
71.75
 31
0
 12
112.89108606655
 22
71.75
 32
0
 13
112.89108606655
 23
71.75
 33
0
  0
MTEXT
  5
98
100
AcDbEntity
  8
dim frame 156mm
  6
CONTINUOUS
 62
    0
370
   -2
100
AcDbMText
 10
109.2442977109821
 20
69
 30
0
 40
6.25
 41
13.19444444444444
 71
    5
 72
    1
  1
18.0
  7
standard
210
0
220
0
230
1
 50
90
 73
    2
 44
1
  0
ENDBLK
  5
5F
330
5D
100
AcDbEntity
  8
0
100
AcDbBlockEnd
  0
BLOCK
  5
61
330
60
100
AcDbEntity
  8
0
100
AcDbBlockBegin
  2
*D1
 70
    1
 10
0
 20
0
  3
*D1
  1

  0
LINE
  5
99
100
AcDbEntity
  8
dim leds 3mm ED
  6
ByBlock
 62
    0
370
   -2
100
AcDbLine
 10
3.999999999999993
 20
31.5
 11
38.856
 21
31.5
  0
SOLID
  5
9A
100
AcDbEntity
  8
dim leds 3mm ED
  6
ByBlock
 62
    0
370
   -2
100
AcDbTrace
 10
3.999999999999993
 20
31.5
 30
0
 11
10.24999999999999
 21
32.5407116444321
 31
0
 12
10.24999999999999
 22
30.4592883555679
 32
0
 13
10.24999999999999
 23
30.4592883555679
 33
0
  0
SOLID
  5
9B
100
AcDbEntity
  8
dim leds 3mm ED
  6
ByBlock
 62
    0
370
   -2
100
AcDbTrace
 10
38.856
 20
31.5
 30
0
 11
32.606
 21
30.4592883555679
 31
0
 12
32.606
 22
32.5407116444321
 32
0
 13
32.606
 23
32.5407116444321
 33
0
  0
MTEXT
  5
9C
100
AcDbEntity
  8
dim leds 3mm ED
  6
CONTINUOUS
 62
    0
370
   -2
100
AcDbMText
 10
21.428
 20
36.1875
 30
0
 40
6.25
 41
15.27777777777817
 71
    5
 72
    1
  1
34.9
  7
standard
210
0
220
0
230
1
 50
0
 73
    2
 44
1
  0
LINE
  5
9D
100
AcDbEntity
  8
dim leds 3mm ED
  6
ByBlock
 62
    0
370
   -2
100
AcDbLine
 10
3.999999999999998
 20
28.0625
 11
3.999999999999988
 21
34.625
  0
LINE
  5
9E
100
AcDbEntity
  8
dim leds 3mm ED
  6
ByBlock
 62
    0
370
   -2
100
AcDbLine
 10
38.856
 20
28.0625
 11
38.856
 21
34.625
  0
ENDBLK
  5
62
330
60
100
AcDbEntity
  8
0
100
AcDbBlockEnd
  0
BLOCK
  5
64
330
63
100
AcDbEntity
  8
0
100
AcDbBlockBegin
  2
*D8
 70
    1
 10
0
 20
0
  3
*D8
  1

  0
LINE
  5
9F
100
AcDbEntity
  8
dim frame 140mm
  6
ByBlock
 62
    0
370
   -2
100
AcDbLine
 10
114.5625
 20
70
 11
121.088843501818
 21
70
  0
LINE
  5
A0
100
AcDbEntity
  8
dim frame 140mm
  6
ByBlock
 62
    0
370
   -2
100
AcDbLine
 10
114.5625
 20
-70
 11
121.088843501818
 21
-70
  0
LINE
  5
A1
100
AcDbEntity
  8
dim frame 140mm
  6
ByBlock
 62
    0
370
   -2
100
AcDbLine
 10
117.963843501818
 20
70
 11
117.963843501818
 21
-70
  0
SOLID
  5
A2
100
AcDbEntity
  8
dim frame 140mm
  6
ByBlock
 62
    0
370
   -2
100
AcDbTrace
 10
117.963843501818
 20
70
 30
0
 11
119.0045551462501
 21
63.75
 31
0
 12
116.9231318573859
 22
63.75
 32
0
 13
116.9231318573859
 23
63.75
 33
0
  0
SOLID
  5
A3
100
AcDbEntity
  8
dim frame 140mm
  6
ByBlock
 62
    0
370
   -2
100
AcDbTrace
 10
117.963843501818
 20
-70
 30
0
 11
116.9231318573859
 21
-63.75
 31
0
 12
119.0045551462501
 22
-63.75
 32
0
 13
119.0045551462501
 23
-63.75
 33
0
  0
MTEXT
  5
A4
100
AcDbEntity
  8
dim frame 140mm
  6
CONTINUOUS
 62
    0
370
   -2
100
AcDbMText
 10
113.276343501818
 20
5.740342283542393e-016
 30
0
 40
6.25
 41
18.75
 71
    5
 72
    1
  1
140.0
  7
standard
210
0
220
0
230
1
 50
90
 73
    2
 44
1
  0
ENDBLK
  5
65
330
63
100
AcDbEntity
  8
0
100
AcDbBlockEnd
  0
BLOCK
  5
67
330
66
100
AcDbEntity
  8
0
100
AcDbBlockBegin
  2
*D3
 70
    1
 10
0
 20
0
  3
*D3
  1

  0
LINE
  5
A5
100
AcDbEntity
  8
dim leds 2mm ED
  6
ByBlock
 62
    0
370
   -2
100
AcDbLine
 10
3
 20
19.0625
 11
3
 21
29.125
  0
LINE
  5
A6
100
AcDbEntity
  8
dim leds 2mm ED
  6
ByBlock
 62
    0
370
   -2
100
AcDbLine
 10
34.124
 20
19.0625
 11
34.124
 21
29.125
  0
LINE
  5
A7
100
AcDbEntity
  8
dim leds 2mm ED
  6
ByBlock
 62
    0
370
   -2
100
AcDbLine
 10
3
 20
26
 11
34.124
 21
26
  0
SOLID
  5
A8
100
AcDbEntity
  8
dim leds 2mm ED
  6
ByBlock
 62
    0
370
   -2
100
AcDbTrace
 10
3
 20
26
 30
0
 11
9.25
 21
27.0407116444321
 31
0
 12
9.25
 22
24.9592883555679
 32
0
 13
9.25
 23
24.9592883555679
 33
0
  0
SOLID
  5
A9
100
AcDbEntity
  8
dim leds 2mm ED
  6
ByBlock
 62
    0
370
   -2
100
AcDbTrace
 10
34.124
 20
26
 30
0
 11
27.874
 21
24.9592883555679
 31
0
 12
27.874
 22
27.0407116444321
 32
0
 13
27.874
 23
27.0407116444321
 33
0
  0
MTEXT
  5
AA
100
AcDbEntity
  8
dim leds 2mm ED
  6
CONTINUOUS
 62
    0
370
   -2
100
AcDbMText
 10
18.562
 20
30.6875
 30
0
 40
6.25
 41
11.80555555555594
 71
    5
 72
    1
  1
31.1
  7
standard
210
0
220
0
230
1
 50
0
 73
    2
 44
1
  0
ENDBLK
  5
68
330
66
100
AcDbEntity
  8
0
100
AcDbBlockEnd
  0
BLOCK
  5
6A
330
69
100
AcDbEntity
  8
0
100
AcDbBlockBegin
  2
*D15
 70
    1
 10
0
 20
0
  3
*D15
  1

  0
LINE
  5
AB
100
AcDbEntity
  8
dim frame 156mm
  6
ByBlock
 62
    0
370
   -2
100
AcDbLine
 10
109.5625
 20
60
 11
117.0398796111306
 21
60
  0
LINE
  5
AC
100
AcDbEntity
  8
dim frame 156mm
  6
ByBlock
 62
    0
370
   -2
100
AcDbLine
 10
109.5625
 20
-60
 11
117.0398796111306
 21
-60
  0
LINE
  5
AD
100
AcDbEntity
  8
dim frame 156mm
  6
ByBlock
 62
    0
370
   -2
100
AcDbLine
 10
113.9148796111306
 20
60
 11
113.9148796111306
 21
-60
  0
SOLID
  5
AE
100
AcDbEntity
  8
dim frame 156mm
  6
ByBlock
 62
    0
370
   -2
100
AcDbTrace
 10
113.9148796111306
 20
60
 30
0
 11
114.9555912555627
 21
53.75
 31
0
 12
112.8741679666985
 22
53.75
 32
0
 13
112.8741679666985
 23
53.75
 33
0
  0
SOLID
  5
AF
100
AcDbEntity
  8
dim frame 156mm
  6
ByBlock
 62
    0
370
   -2
100
AcDbTrace
 10
113.9148796111306
 20
-60
 30
0
 11
112.8741679666985
 21
-53.75
 31
0
 12
114.9555912555627
 22
-53.75
 32
0
 13
114.9555912555627
 23
-53.75
 33
0
  0
MTEXT
  5
B0
100
AcDbEntity
  8
dim frame 156mm
  6
CONTINUOUS
 62
    0
370
   -2
100
AcDbMText
 10
109.2273796111306
 20
5.740342283542393e-016
 30
0
 40
6.25
 41
18.05555555555556
 71
    5
 72
    1
  1
120.0
  7
standard
210
0
220
0
230
1
 50
90
 73
    2
 44
1
  0
ENDBLK
  5
6B
330
69
100
AcDbEntity
  8
0
100
AcDbBlockEnd
  0
BLOCK
  5
6D
330
6C
100
AcDbEntity
  8
0
100
AcDbBlockBegin
  2
*D12
 70
    1
 10
0
 20
0
  3
*D12
  1

  0
LINE
  5
B1
100
AcDbEntity
  8
dim hours 52.5mm
  6
ByBlock
 62
    0
370
   -2
100
AcDbLine
 10
1.5625
 20
0
 11
5.625
 21
0
  0
LINE
  5
B2
100
AcDbEntity
  8
dim hours 52.5mm
  6
ByBlock
 62
    0
370
   -2
100
AcDbLine
 10
1.5625
 20
52.5
 11
5.625
 21
52.5
  0
LINE
  5
B3
100
AcDbEntity
  8
dim hours 52.5mm
  6
ByBlock
 62
    0
370
   -2
100
AcDbLine
 10
2.5
 20
0
 11
2.5
 21
52.5
  0
SOLID
  5
B4
100
AcDbEntity
  8
dim hours 52.5mm
  6
ByBlock
 62
    0
370
   -2
100
AcDbTrace
 10
2.5
 20
0
 30
0
 11
1.4592883555679
 21
6.25
 31
0
 12
3.540711644432102
 22
6.25
 32
0
 13
3.540711644432102
 23
6.25
 33
0
  0
SOLID
  5
B5
100
AcDbEntity
  8
dim hours 52.5mm
  6
ByBlock
 62
    0
370
   -2
100
AcDbTrace
 10
2.5
 20
52.5
 30
0
 11
3.540711644432101
 21
46.25
 31
0
 12
1.459288355567898
 22
46.25
 32
0
 13
1.459288355567898
 23
46.25
 33
0
  0
MTEXT
  5
B6
100
AcDbEntity
  8
dim hours 52.5mm
  6
CONTINUOUS
 62
    0
370
   -2
100
AcDbMText
 10
-2.1875
 20
26.25
 30
0
 40
6.25
 41
14.58333333333411
 71
    5
 72
    1
  1
52.5
  7
standard
210
0
220
0
230
1
 50
90
 73
    2
 44
1
  0
ENDBLK
  5
6E
330
6C
100
AcDbEntity
  8
0
100
AcDbBlockEnd
  0
BLOCK
  5
70
330
6F
100
AcDbEntity
  8
0
100
AcDbBlockBegin
  2
*D13
 70
    1
 10
0
 20
0
  3
*D13
  1

  0
LINE
  5
B7
100
AcDbEntity
  8
dim frame 156mm
  6
ByBlock
 62
    0
370
   -2
100
AcDbLine
 10
-126
 20
79.5625
 11
-126
 21
86.82373117316493
  0
LINE
  5
B8
100
AcDbEntity
  8
dim frame 156mm
  6
ByBlock
 62
    0
370
   -2
100
AcDbLine
 10
126
 20
79.5625
 11
126
 21
86.82373117316493
  0
LINE
  5
B9
100
AcDbEntity
  8
dim frame 156mm
  6
ByBlock
 62
    0
370
   -2
100
AcDbLine
 10
-126
 20
83.69873117316493
 11
126
 21
83.69873117316493
  0
SOLID
  5
BA
100
AcDbEntity
  8
dim frame 156mm
  6
ByBlock
 62
    0
370
   -2
100
AcDbTrace
 10
-126
 20
83.69873117316493
 30
0
 11
-119.75
 21
84.73944281759704
 31
0
 12
-119.75
 22
82.65801952873282
 32
0
 13
-119.75
 23
82.65801952873282
 33
0
  0
SOLID
  5
BB
100
AcDbEntity
  8
dim frame 156mm
  6
ByBlock
 62
    0
370
   -2
100
AcDbTrace
 10
126
 20
83.69873117316493
 30
0
 11
119.75
 21
82.65801952873282
 31
0
 12
119.75
 22
84.73944281759704
 32
0
 13
119.75
 23
84.73944281759704
 33
0
  0
MTEXT
  5
BC
100
AcDbEntity
  8
dim frame 156mm
  6
CONTINUOUS
 62
    0
370
   -2
100
AcDbMText
 10
2.870171141771197e-016
 20
88.38623117316493
 30
0
 40
6.25
 41
19.44444444444483
 71
    5
 72
    1
  1
252.0
  7
standard
210
0
220
0
230
1
 50
0
 73
    2
 44
1
  0
ENDBLK
  5
71
330
6F
100
AcDbEntity
  8
0
100
AcDbBlockEnd
  0
BLOCK
  5
73
330
72
100
AcDbEntity
  8
0
100
AcDbBlockBegin
  2
*D5
 70
    1
 10
0
 20
0
  3
*D5
  1

  0
LINE
  5
BD
100
AcDbEntity
  8
dim leds 2mm non-ED
  6
ByBlock
 62
    0
370
   -2
100
AcDbLine
 10
3
 20
29.5625
 11
3
 21
36.97133830307218
  0
LINE
  5
BE
100
AcDbEntity
  8
dim leds 2mm non-ED
  6
ByBlock
 62
    0
370
   -2
100
AcDbLine
 10
36
 20
29.5625
 11
36
 21
36.97133830307218
  0
LINE
  5
BF
100
AcDbEntity
  8
dim leds 2mm non-ED
  6
ByBlock
 62
    0
370
   -2
100
AcDbLine
 10
3
 20
33.84633830307218
 11
36
 21
33.84633830307218
  0
SOLID
  5
C0
100
AcDbEntity
  8
dim leds 2mm non-ED
  6
ByBlock
 62
    0
370
   -2
100
AcDbTrace
 10
3
 20
33.84633830307218
 30
0
 11
9.25
 21
34.88704994750428
 31
0
 12
9.25
 22
32.80562665864008
 32
0
 13
9.25
 23
32.80562665864008
 33
0
  0
SOLID
  5
C1
100
AcDbEntity
  8
dim leds 2mm non-ED
  6
ByBlock
 62
    0
370
   -2
100
AcDbTrace
 10
36
 20
33.84633830307218
 30
0
 11
29.75
 21
32.80562665864008
 31
0
 12
29.75
 22
34.88704994750428
 32
0
 13
29.75
 23
34.88704994750428
 33
0
  0
MTEXT
  5
C2
100
AcDbEntity
  8
dim leds 2mm non-ED
  6
CONTINUOUS
 62
    0
370
   -2
100
AcDbMText
 10
19.5
 20
38.53383830307218
 30
0
 40
6.25
 41
14.58333333333411
 71
    5
 72
    1
  1
33.0
  7
standard
210
0
220
0
230
1
 50
0
 73
    2
 44
1
  0
ENDBLK
  5
74
330
72
100
AcDbEntity
  8
0
100
AcDbBlockEnd
  0
BLOCK
  5
76
330
75
100
AcDbEntity
  8
0
100
AcDbBlockBegin
  2
*D17
 70
    1
 10
0
 20
0
  3
*D17
  1

  0
LINE
  5
C3
100
AcDbEntity
  8
dim frame 140mm
  6
ByBlock
 62
    0
370
   -2
100
AcDbLine
 10
104.5625
 20
-60
 11
111.9663043781489
 21
-60
  0
LINE
  5
C4
100
AcDbEntity
  8
dim frame 140mm
  6
ByBlock
 62
    0
370
   -2
100
AcDbLine
 10
104.5625
 20
60
 11
111.9663043781489
 21
60
  0
LINE
  5
C5
100
AcDbEntity
  8
dim frame 140mm
  6
ByBlock
 62
    0
370
   -2
100
AcDbLine
 10
108.8413043781489
 20
-60
 11
108.8413043781489
 21
60
  0
SOLID
  5
C6
100
AcDbEntity
  8
dim frame 140mm
  6
ByBlock
 62
    0
370
   -2
100
AcDbTrace
 10
108.8413043781489
 20
-60
 30
0
 11
107.8005927337168
 21
-53.75
 31
0
 12
109.882016022581
 22
-53.75
 32
0
 13
109.882016022581
 23
-53.75
 33
0
  0
SOLID
  5
C7
100
AcDbEntity
  8
dim frame 140mm
  6
ByBlock
 62
    0
370
   -2
100
AcDbTrace
 10
108.8413043781489
 20
60
 30
0
 11
109.882016022581
 21
53.75
 31
0
 12
107.8005927337168
 22
53.75
 32
0
 13
107.8005927337168
 23
53.75
 33
0
  0
MTEXT
  5
C8
100
AcDbEntity
  8
dim frame 140mm
  6
CONTINUOUS
 62
    0
370
   -2
100
AcDbMText
 10
104.1538043781489
 20
5.740342283542393e-016
 30
0
 40
6.25
 41
18.05555555555556
 71
    5
 72
    1
  1
120.0
  7
standard
210
0
220
0
230
1
 50
90
 73
    2
 44
1
  0
ENDBLK
  5
77
330
75
100
AcDbEntity
  8
0
100
AcDbBlockEnd
  0
BLOCK
  5
79
330
78
100
AcDbEntity
  8
0
100
AcDbBlockBegin
  2
*D2
 70
    1
 10
0
 20
0
  3
*D2
  1

  0
LINE
  5
C9
100
AcDbEntity
  8
dim leds 3mm ED
  6
ByBlock
 62
    0
370
   -2
100
AcDbLine
 10
40.4185
 20
26.5
 11
46.98099999999999
 21
26.5
  0
LINE
  5
CA
100
AcDbEntity
  8
dim leds 3mm ED
  6
ByBlock
 62
    0
370
   -2
100
AcDbLine
 10
40.4185
 20
-26.5
 11
46.98099999999999
 21
-26.5
  0
LINE
  5
CB
100
AcDbEntity
  8
dim leds 3mm ED
  6
ByBlock
 62
    0
370
   -2
100
AcDbLine
 10
43.85599999999999
 20
26.5
 11
43.85599999999999
 21
-26.5
  0
SOLID
  5
CC
100
AcDbEntity
  8
dim leds 3mm ED
  6
ByBlock
 62
    0
370
   -2
100
AcDbTrace
 10
43.85599999999999
 20
26.5
 30
0
 11
44.89671164443209
 21
20.25
 31
0
 12
42.81528835556789
 22
20.25
 32
0
 13
42.81528835556789
 23
20.25
 33
0
  0
SOLID
  5
CD
100
AcDbEntity
  8
dim leds 3mm ED
  6
ByBlock
 62
    0
370
   -2
100
AcDbTrace
 10
43.85599999999999
 20
-26.5
 30
0
 11
42.81528835556789
 21
-20.25
 31
0
 12
44.89671164443209
 22
-20.25
 32
0
 13
44.89671164443209
 23
-20.25
 33
0
  0
MTEXT
  5
CE
100
AcDbEntity
  8
dim leds 3mm ED
  6
CONTINUOUS
 62
    0
370
   -2
100
AcDbMText
 10
39.16849999999999
 20
5.740342283542393e-016
 30
0
 40
6.25
 41
14.58333333333411
 71
    5
 72
    1
  1
53.0
  7
standard
210
0
220
0
230
1
 50
90
 73
    2
 44
1
  0
ENDBLK
  5
7A
330
78
100
AcDbEntity
  8
0
100
AcDbBlockEnd
  0
BLOCK
  5
7C
330
7B
100
AcDbEntity
  8
0
100
AcDbBlockBegin
  2
*D11
 70
    1
 10
0
 20
0
  3
*D11
  1

  0
LINE
  5
CF
100
AcDbEntity
  8
dim hours 50mm
  6
ByBlock
 62
    0
370
   -2
100
AcDbLine
 10
1.5625
 20
0
 11
5.625
 21
0
  0
LINE
  5
D0
100
AcDbEntity
  8
dim hours 50mm
  6
ByBlock
 62
    0
370
   -2
100
AcDbLine
 10
1.5625
 20
50
 11
5.625
 21
50
  0
LINE
  5
D1
100
AcDbEntity
  8
dim hours 50mm
  6
ByBlock
 62
    0
370
   -2
100
AcDbLine
 10
2.5
 20
0
 11
2.5
 21
50
  0
SOLID
  5
D2
100
AcDbEntity
  8
dim hours 50mm
  6
ByBlock
 62
    0
370
   -2
100
AcDbTrace
 10
2.5
 20
0
 30
0
 11
1.4592883555679
 21
6.25
 31
0
 12
3.540711644432102
 22
6.25
 32
0
 13
3.540711644432102
 23
6.25
 33
0
  0
SOLID
  5
D3
100
AcDbEntity
  8
dim hours 50mm
  6
ByBlock
 62
    0
370
   -2
100
AcDbTrace
 10
2.5
 20
50
 30
0
 11
3.540711644432101
 21
43.75
 31
0
 12
1.459288355567898
 22
43.75
 32
0
 13
1.459288355567898
 23
43.75
 33
0
  0
MTEXT
  5
D4
100
AcDbEntity
  8
dim hours 50mm
  6
CONTINUOUS
 62
    0
370
   -2
100
AcDbMText
 10
-2.1875
 20
25
 30
0
 40
6.25
 41
14.58333333333372
 71
    5
 72
    1
  1
50.0
  7
standard
210
0
220
0
230
1
 50
90
 73
    2
 44
1
  0
ENDBLK
  5
7D
330
7B
100
AcDbEntity
  8
0
100
AcDbBlockEnd
  0
BLOCK
  5
7F
330
7E
100
AcDbEntity
  8
0
100
AcDbBlockBegin
  2
*D6
 70
    1
 10
0
 20
0
  3
*D6
  1

  0
LINE
  5
D5
100
AcDbEntity
  8
dim leds 2mm non-ED
  6
ByBlock
 62
    0
370
   -2
100
AcDbLine
 10
35.0625
 20
30.5
 11
43.09429397598976
 21
30.5
  0
LINE
  5
D6
100
AcDbEntity
  8
dim leds 2mm non-ED
  6
ByBlock
 62
    0
370
   -2
100
AcDbLine
 10
35.0625
 20
-30.5
 11
43.09429397598976
 21
-30.5
  0
LINE
  5
D7
100
AcDbEntity
  8
dim leds 2mm non-ED
  6
ByBlock
 62
    0
370
   -2
100
AcDbLine
 10
39.96929397598976
 20
30.5
 11
39.96929397598976
 21
-30.5
  0
SOLID
  5
D8
100
AcDbEntity
  8
dim leds 2mm non-ED
  6
ByBlock
 62
    0
370
   -2
100
AcDbTrace
 10
39.96929397598976
 20
30.5
 30
0
 11
41.01000562042186
 21
24.25
 31
0
 12
38.92858233155766
 22
24.25
 32
0
 13
38.92858233155766
 23
24.25
 33
0
  0
SOLID
  5
D9
100
AcDbEntity
  8
dim leds 2mm non-ED
  6
ByBlock
 62
    0
370
   -2
100
AcDbTrace
 10
39.96929397598976
 20
-30.5
 30
0
 11
38.92858233155766
 21
-24.25
 31
0
 12
41.01000562042186
 22
-24.25
 32
0
 13
41.01000562042186
 23
-24.25
 33
0
  0
MTEXT
  5
DA
100
AcDbEntity
  8
dim leds 2mm non-ED
  6
CONTINUOUS
 62
    0
370
   -2
100
AcDbMText
 10
35.28179397598976
 20
5.740342283542393e-016
 30
0
 40
6.25
 41
13.19444444444483
 71
    5
 72
    1
  1
61.0
  7
standard
210
0
220
0
230
1
 50
90
 73
    2
 44
1
  0
ENDBLK
  5
80
330
7E
100
AcDbEntity
  8
0
100
AcDbBlockEnd
  0
BLOCK
  5
82
330
81
100
AcDbEntity
  8
0
100
AcDbBlockBegin
  2
*D7
 70
    1
 10
0
 20
0
  3
*D7
  1

  0
LINE
  5
DB
100
AcDbEntity
  8
dim frame 140mm
  6
ByBlock
 62
    0
370
   -2
100
AcDbLine
 10
-113
 20
71.5625
 11
-113
 21
76.22390630112653
  0
LINE
  5
DC
100
AcDbEntity
  8
dim frame 140mm
  6
ByBlock
 62
    0
370
   -2
100
AcDbLine
 10
113
 20
71.5625
 11
113
 21
76.22390630112653
  0
LINE
  5
DD
100
AcDbEntity
  8
dim frame 140mm
  6
ByBlock
 62
    0
370
   -2
100
AcDbLine
 10
-113
 20
73.09890630112653
 11
113
 21
73.09890630112653
  0
SOLID
  5
DE
100
AcDbEntity
  8
dim frame 140mm
  6
ByBlock
 62
    0
370
   -2
100
AcDbTrace
 10
-113
 20
73.09890630112653
 30
0
 11
-106.75
 21
74.13961794555864
 31
0
 12
-106.75
 22
72.05819465669443
 32
0
 13
-106.75
 23
72.05819465669443
 33
0
  0
SOLID
  5
DF
100
AcDbEntity
  8
dim frame 140mm
  6
ByBlock
 62
    0
370
   -2
100
AcDbTrace
 10
113
 20
73.09890630112653
 30
0
 11
106.75
 21
72.05819465669443
 31
0
 12
106.75
 22
74.13961794555864
 32
0
 13
106.75
 23
74.13961794555864
 33
0
  0
MTEXT
  5
E0
100
AcDbEntity
  8
dim frame 140mm
  6
CONTINUOUS
 62
    0
370
   -2
100
AcDbMText
 10
2.870171141771197e-016
 20
77.78640630112653
 30
0
 40
6.25
 41
19.44444444444483
 71
    5
 72
    1
  1
226.0
  7
standard
210
0
220
0
230
1
 50
0
 73
    2
 44
1
  0
ENDBLK
  5
83
330
81
100
AcDbEntity
  8
0
100
AcDbBlockEnd
  0
BLOCK
  5
85
330
84
100
AcDbEntity
  8
0
100
AcDbBlockBegin
  2
*D14
 70
    1
 10
0
 20
0
  3
*D14
  1

  0
LINE
  5
E1
100
AcDbEntity
  8
dim frame 156mm
  6
ByBlock
 62
    0
370
   -2
100
AcDbLine
 10
127.5625
 20
78
 11
135.16956867391
 21
78
  0
LINE
  5
E2
100
AcDbEntity
  8
dim frame 156mm
  6
ByBlock
 62
    0
370
   -2
100
AcDbLine
 10
127.5625
 20
-78
 11
135.16956867391
 21
-78
  0
LINE
  5
E3
100
AcDbEntity
  8
dim frame 156mm
  6
ByBlock
 62
    0
370
   -2
100
AcDbLine
 10
132.04456867391
 20
78
 11
132.04456867391
 21
-78
  0
SOLID
  5
E4
100
AcDbEntity
  8
dim frame 156mm
  6
ByBlock
 62
    0
370
   -2
100
AcDbTrace
 10
132.04456867391
 20
78
 30
0
 11
133.0852803183421
 21
71.75
 31
0
 12
131.0038570294779
 22
71.75
 32
0
 13
131.0038570294779
 23
71.75
 33
0
  0
SOLID
  5
E5
100
AcDbEntity
  8
dim frame 156mm
  6
ByBlock
 62
    0
370
   -2
100
AcDbTrace
 10
132.04456867391
 20
-78
 30
0
 11
131.0038570294779
 21
-71.75
 31
0
 12
133.0852803183421
 22
-71.75
 32
0
 13
133.0852803183421
 23
-71.75
 33
0
  0
MTEXT
  5
E6
100
AcDbEntity
  8
dim frame 156mm
  6
CONTINUOUS
 62
    0
370
   -2
100
AcDbMText
 10
127.35706867391
 20
5.740342283542393e-016
 30
0
 40
6.25
 41
18.05555555555633
 71
    5
 72
    1
  1
156.0
  7
standard
210
0
220
0
230
1
 50
90
 73
    2
 44
1
  0
ENDBLK
  5
86
330
84
100
AcDbEntity
  8
0
100
AcDbBlockEnd
  0
BLOCK
  5
88
330
87
100
AcDbEntity
  8
0
100
AcDbBlockBegin
  2
*D18
 70
    1
 10
0
 20
0
  3
*D18
  1

  0
LINE
  5
E7
100
AcDbEntity
  8
dim frame 140mm
  6
ByBlock
 62
    0
370
   -2
100
AcDbLine
 10
104.5625
 20
60
 11
112.0028460418028
 21
60
  0
LINE
  5
E8
100
AcDbEntity
  8
dim frame 140mm
  6
ByBlock
 62
    0
370
   -2
100
AcDbLine
 10
104.5625
 20
70
 11
112.0028460418028
 21
70
  0
LINE
  5
E9
100
AcDbEntity
  8
dim frame 140mm
  6
ByBlock
 62
    0
370
   -2
100
AcDbLine
 10
108.8778460418028
 20
47.5
 11
108.8778460418028
 21
82.5
  0
SOLID
  5
EA
100
AcDbEntity
  8
dim frame 140mm
  6
ByBlock
 62
    0
370
   -2
100
AcDbTrace
 10
108.8778460418028
 20
60
 30
0
 11
109.9185576862349
 21
53.75
 31
0
 12
107.8371343973707
 22
53.75
 32
0
 13
107.8371343973707
 23
53.75
 33
0
  0
SOLID
  5
EB
100
AcDbEntity
  8
dim frame 140mm
  6
ByBlock
 62
    0
370
   -2
100
AcDbTrace
 10
108.8778460418028
 20
70
 30
0
 11
107.8371343973707
 21
76.25
 31
0
 12
109.9185576862349
 22
76.25
 32
0
 13
109.9185576862349
 23
76.25
 33
0
  0
MTEXT
  5
EC
100
AcDbEntity
  8
dim frame 140mm
  6
CONTINUOUS
 62
    0
370
   -2
100
AcDbMText
 10
104.1903460418028
 20
78.15972222222223
 30
0
 40
6.25
 41
13.19444444444444
 71
    5
 72
    1
  1
10.0
  7
standard
210
0
220
0
230
1
 50
90
 73
    2
 44
1
  0
ENDBLK
  5
89
330
87
100
AcDbEntity
  8
0
100
AcDbBlockEnd
  0
BLOCK
  5
8B
330
8A
100
AcDbEntity
  8
0
100
AcDbBlockBegin
  2
*D9
 70
    1
 10
0
 20
0
  3
*D9
  1

  0
LINE
  5
ED
100
AcDbEntity
  8
dim frame 120mm
  6
ByBlock
 62
    0
370
   -2
100
AcDbLine
 10
98.5625
 20
60
 11
106.0273746701858
 21
60
  0
LINE
  5
EE
100
AcDbEntity
  8
dim frame 120mm
  6
ByBlock
 62
    0
370
   -2
100
AcDbLine
 10
98.5625
 20
-60
 11
106.0273746701858
 21
-60
  0
LINE
  5
EF
100
AcDbEntity
  8
dim frame 120mm
  6
ByBlock
 62
    0
370
   -2
100
AcDbLine
 10
102.9023746701858
 20
60
 11
102.9023746701858
 21
-60
  0
SOLID
  5
F0
100
AcDbEntity
  8
dim frame 120mm
  6
ByBlock
 62
    0
370
   -2
100
AcDbTrace
 10
102.9023746701858
 20
60
 30
0
 11
103.9430863146179
 21
53.75
 31
0
 12
101.8616630257537
 22
53.75
 32
0
 13
101.8616630257537
 23
53.75
 33
0
  0
SOLID
  5
F1
100
AcDbEntity
  8
dim frame 120mm
  6
ByBlock
 62
    0
370
   -2
100
AcDbTrace
 10
102.9023746701858
 20
-60
 30
0
 11
101.8616630257537
 21
-53.75
 31
0
 12
103.9430863146179
 22
-53.75
 32
0
 13
103.9430863146179
 23
-53.75
 33
0
  0
MTEXT
  5
F2
100
AcDbEntity
  8
dim frame 120mm
  6
CONTINUOUS
 62
    0
370
   -2
100
AcDbMText
 10
98.21487467018579
 20
5.740342283542393e-016
 30
0
 40
6.25
 41
18.05555555555556
 71
    5
 72
    1
  1
120.0
  7
standard
210
0
220
0
230
1
 50
90
 73
    2
 44
1
  0
ENDBLK
  5
8C
330
8A
100
AcDbEntity
  8
0
100
AcDbBlockEnd
  0
BLOCK
  5
8E
330
8D
100
AcDbEntity
  8
0
100
AcDbBlockBegin
  2
*D10
 70
    1
 10
0
 20
0
  3
*D10
  1

  0
LINE
  5
F3
100
AcDbEntity
  8
dim frame 120mm
  6
ByBlock
 62
    0
370
   -2
100
AcDbLine
 10
-97
 20
61.5625
 11
-97
 21
67.54892260334285
  0
LINE
  5
F4
100
AcDbEntity
  8
dim frame 120mm
  6
ByBlock
 62
    0
370
   -2
100
AcDbLine
 10
97
 20
61.5625
 11
97
 21
67.54892260334285
  0
LINE
  5
F5
100
AcDbEntity
  8
dim frame 120mm
  6
ByBlock
 62
    0
370
   -2
100
AcDbLine
 10
-97
 20
64.42392260334285
 11
97
 21
64.42392260334285
  0
SOLID
  5
F6
100
AcDbEntity
  8
dim frame 120mm
  6
ByBlock
 62
    0
370
   -2
100
AcDbTrace
 10
-97
 20
64.42392260334285
 30
0
 11
-90.75
 21
65.46463424777495
 31
0
 12
-90.75
 22
63.38321095891074
 32
0
 13
-90.75
 23
63.38321095891074
 33
0
  0
SOLID
  5
F7
100
AcDbEntity
  8
dim frame 120mm
  6
ByBlock
 62
    0
370
   -2
100
AcDbTrace
 10
97
 20
64.42392260334285
 30
0
 11
90.75
 21
63.38321095891074
 31
0
 12
90.75
 22
65.46463424777495
 32
0
 13
90.75
 23
65.46463424777495
 33
0
  0
MTEXT
  5
F8
100
AcDbEntity
  8
dim frame 120mm
  6
CONTINUOUS
 62
    0
370
   -2
100
AcDbMText
 10
2.870171141771197e-016
 20
69.11142260334285
 30
0
 40
6.25
 41
18.75
 71
    5
 72
    1
  1
194.0
  7
standard
210
0
220
0
230
1
 50
0
 73
    2
 44
1
  0
ENDBLK
  5
8F
330
8D
100
AcDbEntity
  8
0
100
AcDbBlockEnd
  0
BLOCK
  5
91
330
90
100
AcDbEntity
  8
0
100
AcDbBlockBegin
  2
*D4
 70
    1
 10
0
 20
0
  3
*D4
  1

  0
LINE
  5
F9
100
AcDbEntity
  8
dim leds 2mm ED
  6
ByBlock
 62
    0
370
   -2
100
AcDbLine
 10
27.1245
 20
23.5
 11
42.24899999999999
 21
23.5
  0
LINE
  5
FA
100
AcDbEntity
  8
dim leds 2mm ED
  6
ByBlock
 62
    0
370
   -2
100
AcDbLine
 10
27.1245
 20
-23.5
 11
42.24899999999999
 21
-23.5
  0
LINE
  5
FB
100
AcDbEntity
  8
dim leds 2mm ED
  6
ByBlock
 62
    0
370
   -2
100
AcDbLine
 10
39.12399999999999
 20
23.5
 11
39.12399999999999
 21
-23.5
  0
SOLID
  5
FC
100
AcDbEntity
  8
dim leds 2mm ED
  6
ByBlock
 62
    0
370
   -2
100
AcDbTrace
 10
39.12399999999999
 20
23.5
 30
0
 11
40.16471164443209
 21
17.25
 31
0
 12
38.08328835556789
 22
17.25
 32
0
 13
38.08328835556789
 23
17.25
 33
0
  0
SOLID
  5
FD
100
AcDbEntity
  8
dim leds 2mm ED
  6
ByBlock
 62
    0
370
   -2
100
AcDbTrace
 10
39.12399999999999
 20
-23.5
 30
0
 11
38.08328835556789
 21
-17.25
 31
0
 12
40.16471164443209
 22
-17.25
 32
0
 13
40.16471164443209
 23
-17.25
 33
0
  0
MTEXT
  5
FE
100
AcDbEntity
  8
dim leds 2mm ED
  6
CONTINUOUS
 62
    0
370
   -2
100
AcDbMText
 10
34.43649999999999
 20
5.740342283542393e-016
 30
0
 40
6.25
 41
15.27777777777778
 71
    5
 72
    1
  1
47.0
  7
standard
210
0
220
0
230
1
 50
90
 73
    2
 44
1
  0
ENDBLK
  5
92
330
90
100
AcDbEntity
  8
0
100
AcDbBlockEnd
  0
ENDSEC
  0
SECTION
  2
ENTITIES
  0
CIRCLE
  5
FF
100
AcDbEntity
  8
0
  6
ByLayer
 62
  256
370
   -1
100
AcDbCircle
 10
-36.356
 20
-20
 40
2.5
  0
CIRCLE
  5
100
100
AcDbEntity
  8
0
  6
ByLayer
 62
  256
370
   -1
100
AcDbCircle
 10
-36.356
 20
-12
 40
2.5
  0
CIRCLE
  5
101
100
AcDbEntity
  8
0
  6
ByLayer
 62
  256
370
   -1
100
AcDbCircle
 10
-36.356
 20
-4
 40
2.5
  0
CIRCLE
  5
102
100
AcDbEntity
  8
0
  6
ByLayer
 62
  256
370
   -1
100
AcDbCircle
 10
-36.356
 20
4
 40
2.5
  0
CIRCLE
  5
103
100
AcDbEntity
  8
0
  6
ByLayer
 62
  256
370
   -1
100
AcDbCircle
 10
-36.356
 20
12
 40
2.5
  0
CIRCLE
  5
104
100
AcDbEntity
  8
0
  6
ByLayer
 62
  256
370
   -1
100
AcDbCircle
 10
-36.356
 20
20
 40
2.5
  0
CIRCLE
  5
105
100
AcDbEntity
  8
0
  6
ByLayer
 62
  256
370
   -1
100
AcDbCircle
 10
-29.428
 20
0
 40
2.5
  0
CIRCLE
  5
106
100
AcDbEntity
  8
0
  6
ByLayer
 62
  256
370
   -1
100
AcDbCircle
 10
-21.428
 20
0
 40
2.5
  0
CIRCLE
  5
107
100
AcDbEntity
  8
0
  6
ByLayer
 62
  256
370
   -1
100
AcDbCircle
 10
-13.428
 20
0
 40
2.5
  0
CIRCLE
  5
108
100
AcDbEntity
  8
0
  6
ByLayer
 62
  256
370
   -1
100
AcDbCircle
 10
-6.5
 20
-20
 40
2.5
  0
CIRCLE
  5
109
100
AcDbEntity
  8
0
  6
ByLayer
 62
  256
370
   -1
100
AcDbCircle
 10
-6.5
 20
-12
 40
2.5
  0
CIRCLE
  5
10A
100
AcDbEntity
  8
0
  6
ByLayer
 62
  256
370
   -1
100
AcDbCircle
 10
-6.5
 20
-4
 40
2.5
  0
CIRCLE
  5
10B
100
AcDbEntity
  8
0
  6
ByLayer
 62
  256
370
   -1
100
AcDbCircle
 10
-6.5
 20
4
 40
2.5
  0
CIRCLE
  5
10C
100
AcDbEntity
  8
0
  6
ByLayer
 62
  256
370
   -1
100
AcDbCircle
 10
-6.5
 20
12
 40
2.5
  0
CIRCLE
  5
10D
100
AcDbEntity
  8
0
  6
ByLayer
 62
  256
370
   -1
100
AcDbCircle
 10
-6.5
 20
20
 40
2.5
  0
CIRCLE
  5
10E
100
AcDbEntity
  8
0
  6
ByLayer
 62
  256
370
   -1
100
AcDbCircle
 10
-29.428
 20
24
 40
2.5
  0
CIRCLE
  5
10F
100
AcDbEntity
  8
0
  6
ByLayer
 62
  256
370
   -1
100
AcDbCircle
 10
-21.428
 20
24
 40
2.5
  0
CIRCLE
  5
110
100
AcDbEntity
  8
0
  6
ByLayer
 62
  256
370
   -1
100
AcDbCircle
 10
-13.428
 20
24
 40
2.5
  0
CIRCLE
  5
111
100
AcDbEntity
  8
0
  6
ByLayer
 62
  256
370
   -1
100
AcDbCircle
 10
-29.428
 20
-24
 40
2.5
  0
CIRCLE
  5
112
100
AcDbEntity
  8
0
  6
ByLayer
 62
  256
370
   -1
100
AcDbCircle
 10
-21.428
 20
-24
 40
2.5
  0
CIRCLE
  5
113
100
AcDbEntity
  8
0
  6
ByLayer
 62
  256
370
   -1
100
AcDbCircle
 10
-13.428
 20
-24
 40
2.5
  0
CIRCLE
  5
114
100
AcDbEntity
  8
0
  6
ByLayer
 62
  256
370
   -1
100
AcDbCircle
 10
6.5
 20
-20
 40
2.5
  0
CIRCLE
  5
115
100
AcDbEntity
  8
0
  6
ByLayer
 62
  256
370
   -1
100
AcDbCircle
 10
6.5
 20
-12
 40
2.5
  0
CIRCLE
  5
116
100
AcDbEntity
  8
0
  6
ByLayer
 62
  256
370
   -1
100
AcDbCircle
 10
6.5
 20
-4
 40
2.5
  0
CIRCLE
  5
117
100
AcDbEntity
  8
0
  6
ByLayer
 62
  256
370
   -1
100
AcDbCircle
 10
6.5
 20
4
 40
2.5
  0
CIRCLE
  5
118
100
AcDbEntity
  8
0
  6
ByLayer
 62
  256
370
   -1
100
AcDbCircle
 10
6.5
 20
12
 40
2.5
  0
CIRCLE
  5
119
100
AcDbEntity
  8
0
  6
ByLayer
 62
  256
370
   -1
100
AcDbCircle
 10
6.5
 20
20
 40
2.5
  0
CIRCLE
  5
11A
100
AcDbEntity
  8
0
  6
ByLayer
 62
  256
370
   -1
100
AcDbCircle
 10
13.428
 20
0
 40
2.5
  0
CIRCLE
  5
11B
100
AcDbEntity
  8
0
  6
ByLayer
 62
  256
370
   -1
100
AcDbCircle
 10
21.428
 20
0
 40
2.5
  0
CIRCLE
  5
11C
100
AcDbEntity
  8
0
  6
ByLayer
 62
  256
370
   -1
100
AcDbCircle
 10
29.428
 20
0
 40
2.5
  0
CIRCLE
  5
11D
100
AcDbEntity
  8
0
  6
ByLayer
 62
  256
370
   -1
100
AcDbCircle
 10
36.356
 20
-20
 40
2.5
  0
CIRCLE
  5
11E
100
AcDbEntity
  8
0
  6
ByLayer
 62
  256
370
   -1
100
AcDbCircle
 10
36.356
 20
-12
 40
2.5
  0
CIRCLE
  5
11F
100
AcDbEntity
  8
0
  6
ByLayer
 62
  256
370
   -1
100
AcDbCircle
 10
36.356
 20
-4
 40
2.5
  0
CIRCLE
  5
120
100
AcDbEntity
  8
0
  6
ByLayer
 62
  256
370
   -1
100
AcDbCircle
 10
36.356
 20
4
 40
2.5
  0
CIRCLE
  5
121
100
AcDbEntity
  8
0
  6
ByLayer
 62
  256
370
   -1
100
AcDbCircle
 10
36.356
 20
12
 40
2.5
  0
CIRCLE
  5
122
100
AcDbEntity
  8
0
  6
ByLayer
 62
  256
370
   -1
100
AcDbCircle
 10
36.356
 20
20
 40
2.5
  0
CIRCLE
  5
123
100
AcDbEntity
  8
0
  6
ByLayer
 62
  256
370
   -1
100
AcDbCircle
 10
13.428
 20
24
 40
2.5
  0
CIRCLE
  5
124
100
AcDbEntity
  8
0
  6
ByLayer
 62
  256
370
   -1
100
AcDbCircle
 10
21.428
 20
24
 40
2.5
  0
CIRCLE
  5
125
100
AcDbEntity
  8
0
  6
ByLayer
 62
  256
370
   -1
100
AcDbCircle
 10
29.428
 20
24
 40
2.5
  0
CIRCLE
  5
126
100
AcDbEntity
  8
0
  6
ByLayer
 62
  256
370
   -1
100
AcDbCircle
 10
13.428
 20
-24
 40
2.5
  0
CIRCLE
  5
127
100
AcDbEntity
  8
0
  6
ByLayer
 62
  256
370
   -1
100
AcDbCircle
 10
21.428
 20
-24
 40
2.5
  0
CIRCLE
  5
128
100
AcDbEntity
  8
0
  6
ByLayer
 62
  256
370
   -1
100
AcDbCircle
 10
29.428
 20
-24
 40
2.5
  0
LWPOLYLINE
  5
129
100
AcDbEntity
  8
dim leds 3mm ED
  6
ByLayer
 62
  256
370
   -1
100
AcDbPolyline
 90
    4
 70
    1
 43
0
 10
4
 20
-26.5
 10
38.856
 20
-26.5
 10
38.856
 20
26.5
 10
4
 20
26.5
  0
DIMENSION
  5
12A
100
AcDbEntity
  8
dim leds 3mm ED
  6
ByLayer
 62
  256
370
   -1
100
AcDbDimension
  2
*D1
 10
38.856
 20
31.5
 30
0
 11
21.428
 21
36.1875
 31
0
 70
   32
 71
    5
 72
    0
  3
Standard
 53
0
210
0
220
0
230
1
100
AcDbAlignedDimension
 13
4
 23
26.5
 33
0
 14
38.856
 24
26.5
 34
0
100
AcDbRotatedDimension
  0
DIMENSION
  5
12B
100
AcDbEntity
  8
dim leds 3mm ED
  6
ByLayer
 62
  256
370
   -1
100
AcDbDimension
  2
*D2
 10
43.85599999999999
 20
-26.5
 30
0
 11
39.16849999999999
 21
5.740342283542393e-016
 31
0
 70
   33
 71
    5
 72
    0
  3
Standard
 53
0
210
0
220
0
230
1
100
AcDbAlignedDimension
 13
38.856
 23
26.5
 33
0
 14
38.856
 24
-26.5
 34
0
  0
LWPOLYLINE
  5
12C
100
AcDbEntity
  8
frame 120mm
  6
ByLayer
 62
  256
370
   -1
100
AcDbPolyline
 90
    4
 70
    1
 43
0
 10
-97
 20
-60
 10
97
 20
-60
 10
97
 20
60
 10
-97
 20
60
  0
LWPOLYLINE
  5
12D
100
AcDbEntity
  8
frame 120mm
  6
ByLayer
 62
  256
370
   -1
100
AcDbPolyline
 90
    4
 70
    1
 43
0
 10
-87
 20
-50
 10
87
 20
-50
 10
87
 20
50
 10
-87
 20
50
  0
CIRCLE
  5
12E
100
AcDbEntity
  8
hours 50mm
  6
ByLayer
 62
  256
370
   -1
100
AcDbCircle
 10
0
 20
50
 40
2.5
  0
CIRCLE
  5
12F
100
AcDbEntity
  8
hours 50mm
  6
ByLayer
 62
  256
370
   -1
100
AcDbCircle
 10
-25
 20
43.30127018922194
 40
2.5
  0
CIRCLE
  5
130
100
AcDbEntity
  8
hours 50mm
  6
ByLayer
 62
  256
370
   -1
100
AcDbCircle
 10
-43.30127018922193
 20
25.00000000000001
 40
2.5
  0
CIRCLE
  5
131
100
AcDbEntity
  8
hours 50mm
  6
ByLayer
 62
  256
370
   -1
100
AcDbCircle
 10
-50
 20
3.061515884555943e-015
 40
2.5
  0
CIRCLE
  5
132
100
AcDbEntity
  8
hours 50mm
  6
ByLayer
 62
  256
370
   -1
100
AcDbCircle
 10
-43.30127018922194
 20
-24.99999999999999
 40
2.5
  0
CIRCLE
  5
133
100
AcDbEntity
  8
hours 50mm
  6
ByLayer
 62
  256
370
   -1
100
AcDbCircle
 10
-25.00000000000002
 20
-43.30127018922192
 40
2.5
  0
CIRCLE
  5
134
100
AcDbEntity
  8
hours 50mm
  6
ByLayer
 62
  256
370
   -1
100
AcDbCircle
 10
-6.123031769111886e-015
 20
-50
 40
2.5
  0
CIRCLE
  5
135
100
AcDbEntity
  8
hours 50mm
  6
ByLayer
 62
  256
370
   -1
100
AcDbCircle
 10
24.99999999999999
 20
-43.30127018922194
 40
2.5
  0
CIRCLE
  5
136
100
AcDbEntity
  8
hours 50mm
  6
ByLayer
 62
  256
370
   -1
100
AcDbCircle
 10
43.30127018922192
 20
-25.00000000000002
 40
2.5
  0
CIRCLE
  5
137
100
AcDbEntity
  8
hours 50mm
  6
ByLayer
 62
  256
370
   -1
100
AcDbCircle
 10
50
 20
-9.184547653667829e-015
 40
2.5
  0
CIRCLE
  5
138
100
AcDbEntity
  8
hours 50mm
  6
ByLayer
 62
  256
370
   -1
100
AcDbCircle
 10
43.30127018922195
 20
24.99999999999997
 40
2.5
  0
CIRCLE
  5
139
100
AcDbEntity
  8
hours 50mm
  6
ByLayer
 62
  256
370
   -1
100
AcDbCircle
 10
25.00000000000002
 20
43.30127018922192
 40
2.5
  0
CIRCLE
  5
13A
100
AcDbEntity
  8
leds 2mm ED
  6
ByLayer
 62
  256
370
   -1
100
AcDbCircle
 10
-31.624
 20
-17.5
 40
2.5
  0
CIRCLE
  5
13B
100
AcDbEntity
  8
leds 2mm ED
  6
ByLayer
 62
  256
370
   -1
100
AcDbCircle
 10
-31.624
 20
-10.5
 40
2.5
  0
CIRCLE
  5
13C
100
AcDbEntity
  8
leds 2mm ED
  6
ByLayer
 62
  256
370
   -1
100
AcDbCircle
 10
-31.624
 20
-3.5
 40
2.5
  0
CIRCLE
  5
13D
100
AcDbEntity
  8
leds 2mm ED
  6
ByLayer
 62
  256
370
   -1
100
AcDbCircle
 10
-31.624
 20
3.5
 40
2.5
  0
CIRCLE
  5
13E
100
AcDbEntity
  8
leds 2mm ED
  6
ByLayer
 62
  256
370
   -1
100
AcDbCircle
 10
-31.624
 20
10.5
 40
2.5
  0
CIRCLE
  5
13F
100
AcDbEntity
  8
leds 2mm ED
  6
ByLayer
 62
  256
370
   -1
100
AcDbCircle
 10
-31.624
 20
17.5
 40
2.5
  0
CIRCLE
  5
140
100
AcDbEntity
  8
leds 2mm ED
  6
ByLayer
 62
  256
370
   -1
100
AcDbCircle
 10
-25.562
 20
0
 40
2.5
  0
CIRCLE
  5
141
100
AcDbEntity
  8
leds 2mm ED
  6
ByLayer
 62
  256
370
   -1
100
AcDbCircle
 10
-18.562
 20
0
 40
2.5
  0
CIRCLE
  5
142
100
AcDbEntity
  8
leds 2mm ED
  6
ByLayer
 62
  256
370
   -1
100
AcDbCircle
 10
-11.562
 20
0
 40
2.5
  0
CIRCLE
  5
143
100
AcDbEntity
  8
leds 2mm ED
  6
ByLayer
 62
  256
370
   -1
100
AcDbCircle
 10
-25.562
 20
-21
 40
2.5
  0
CIRCLE
  5
144
100
AcDbEntity
  8
leds 2mm ED
  6
ByLayer
 62
  256
370
   -1
100
AcDbCircle
 10
-18.562
 20
-21
 40
2.5
  0
CIRCLE
  5
145
100
AcDbEntity
  8
leds 2mm ED
  6
ByLayer
 62
  256
370
   -1
100
AcDbCircle
 10
-11.562
 20
-21
 40
2.5
  0
CIRCLE
  5
146
100
AcDbEntity
  8
leds 2mm ED
  6
ByLayer
 62
  256
370
   -1
100
AcDbCircle
 10
-25.562
 20
21
 40
2.5
  0
CIRCLE
  5
147
100
AcDbEntity
  8
leds 2mm ED
  6
ByLayer
 62
  256
370
   -1
100
AcDbCircle
 10
-18.562
 20
21
 40
2.5
  0
CIRCLE
  5
148
100
AcDbEntity
  8
leds 2mm ED
  6
ByLayer
 62
  256
370
   -1
100
AcDbCircle
 10
-11.562
 20
21
 40
2.5
  0
CIRCLE
  5
149
100
AcDbEntity
  8
leds 2mm ED
  6
ByLayer
 62
  256
370
   -1
100
AcDbCircle
 10
-5.500000000000004
 20
-17.5
 40
2.5
  0
CIRCLE
  5
14A
100
AcDbEntity
  8
leds 2mm ED
  6
ByLayer
 62
  256
370
   -1
100
AcDbCircle
 10
-5.500000000000004
 20
-10.5
 40
2.5
  0
CIRCLE
  5
14B
100
AcDbEntity
  8
leds 2mm ED
  6
ByLayer
 62
  256
370
   -1
100
AcDbCircle
 10
-5.500000000000004
 20
-3.5
 40
2.5
  0
CIRCLE
  5
14C
100
AcDbEntity
  8
leds 2mm ED
  6
ByLayer
 62
  256
370
   -1
100
AcDbCircle
 10
-5.500000000000004
 20
3.5
 40
2.5
  0
CIRCLE
  5
14D
100
AcDbEntity
  8
leds 2mm ED
  6
ByLayer
 62
  256
370
   -1
100
AcDbCircle
 10
-5.500000000000004
 20
10.5
 40
2.5
  0
CIRCLE
  5
14E
100
AcDbEntity
  8
leds 2mm ED
  6
ByLayer
 62
  256
370
   -1
100
AcDbCircle
 10
-5.500000000000004
 20
17.5
 40
2.5
  0
DIMENSION
  5
14F
100
AcDbEntity
  8
dim leds 2mm ED
  6
ByLayer
 62
  256
370
   -1
100
AcDbDimension
  2
*D3
 10
34.124
 20
26
 30
0
 11
18.562
 21
30.6875
 31
0
 70
   33
 71
    5
 72
    0
  3
Standard
 53
0
210
0
220
0
230
1
100
AcDbAlignedDimension
 13
3
 23
17.5
 33
0
 14
34.124
 24
17.5
 34
0
  0
DIMENSION
  5
150
100
AcDbEntity
  8
dim leds 2mm ED
  6
ByLayer
 62
  256
370
   -1
100
AcDbDimension
  2
*D4
 10
39.12399999999999
 20
-23.5
 30
0
 11
34.43649999999999
 21
5.740342283542393e-016
 31
0
 70
   33
 71
    5
 72
    0
  3
Standard
 53
0
210
0
220
0
230
1
100
AcDbAlignedDimension
 13
25.562
 23
23.5
 33
0
 14
25.562
 24
-23.5
 34
0
  0
LWPOLYLINE
  5
151
100
AcDbEntity
  8
frame 140mm
  6
ByLayer
 62
  256
370
   -1
100
AcDbPolyline
 90
    4
 70
    1
 43
0
 10
-113
 20
-70
 10
113
 20
-70
 10
113
 20
70
 10
-113
 20
70
  0
LWPOLYLINE
  5
152
100
AcDbEntity
  8
frame 140mm
  6
ByLayer
 62
  256
370
   -1
100
AcDbPolyline
 90
    4
 70
    1
 43
0
 10
-103
 20
-60
 10
103
 20
-60
 10
103
 20
60
 10
-103
 20
60
  0
LWPOLYLINE
  5
153
100
AcDbEntity
  8
frame 140mm
  6
ByLayer
 62
  256
370
   -1
100
AcDbPolyline
 90
    4
 70
    1
 43
0
 10
-102
 20
-59
 10
102
 20
-59
 10
102
 20
59
 10
-102
 20
59
  0
LINE
  5
154
100
AcDbEntity
  8
center
  6
ByLayer
 62
  256
370
   -1
100
AcDbLine
 10
-3
 20
0
 11
3
 21
0
  0
LINE
  5
155
100
AcDbEntity
  8
center
  6
ByLayer
 62
  256
370
   -1
100
AcDbLine
 10
0
 20
-3
 11
0
 21
3
  0
CIRCLE
  5
156
100
AcDbEntity
  8
leds 2mm non-ED
  6
ByLayer
 62
  256
370
   -1
100
AcDbCircle
 10
5.5
 20
-28
 40
2.5
  0
LINE
  5
157
100
AcDbEntity
  8
leds 2mm non-ED
  6
ByLayer
 62
  256
370
   -1
100
AcDbLine
 10
3
 20
-28
 11
8
 21
-28
  0
LINE
  5
158
100
AcDbEntity
  8
leds 2mm non-ED
  6
ByLayer
 62
  256
370
   -1
100
AcDbLine
 10
5.5
 20
-30.5
 11
5.5
 21
-25.5
  0
CIRCLE
  5
159
100
AcDbEntity
  8
leds 2mm non-ED
  6
ByLayer
 62
  256
370
   -1
100
AcDbCircle
 10
5.5
 20
-21
 40
2.5
  0
LINE
  5
15A
100
AcDbEntity
  8
leds 2mm non-ED
  6
ByLayer
 62
  256
370
   -1
100
AcDbLine
 10
3
 20
-21
 11
8
 21
-21
  0
LINE
  5
15B
100
AcDbEntity
  8
leds 2mm non-ED
  6
ByLayer
 62
  256
370
   -1
100
AcDbLine
 10
5.5
 20
-23.5
 11
5.5
 21
-18.5
  0
CIRCLE
  5
15C
100
AcDbEntity
  8
leds 2mm non-ED
  6
ByLayer
 62
  256
370
   -1
100
AcDbCircle
 10
5.5
 20
-14
 40
2.5
  0
LINE
  5
15D
100
AcDbEntity
  8
leds 2mm non-ED
  6
ByLayer
 62
  256
370
   -1
100
AcDbLine
 10
3
 20
-14
 11
8
 21
-14
  0
LINE
  5
15E
100
AcDbEntity
  8
leds 2mm non-ED
  6
ByLayer
 62
  256
370
   -1
100
AcDbLine
 10
5.5
 20
-16.5
 11
5.5
 21
-11.5
  0
CIRCLE
  5
15F
100
AcDbEntity
  8
leds 2mm non-ED
  6
ByLayer
 62
  256
370
   -1
100
AcDbCircle
 10
5.5
 20
-7
 40
2.5
  0
LINE
  5
160
100
AcDbEntity
  8
leds 2mm non-ED
  6
ByLayer
 62
  256
370
   -1
100
AcDbLine
 10
3
 20
-7
 11
8
 21
-7
  0
LINE
  5
161
100
AcDbEntity
  8
leds 2mm non-ED
  6
ByLayer
 62
  256
370
   -1
100
AcDbLine
 10
5.5
 20
-9.5
 11
5.5
 21
-4.5
  0
CIRCLE
  5
162
100
AcDbEntity
  8
leds 2mm non-ED
  6
ByLayer
 62
  256
370
   -1
100
AcDbCircle
 10
5.5
 20
0
 40
2.5
  0
LINE
  5
163
100
AcDbEntity
  8
leds 2mm non-ED
  6
ByLayer
 62
  256
370
   -1
100
AcDbLine
 10
3
 20
0
 11
8
 21
0
  0
LINE
  5
164
100
AcDbEntity
  8
leds 2mm non-ED
  6
ByLayer
 62
  256
370
   -1
100
AcDbLine
 10
5.5
 20
-2.5
 11
5.5
 21
2.5
  0
CIRCLE
  5
165
100
AcDbEntity
  8
leds 2mm non-ED
  6
ByLayer
 62
  256
370
   -1
100
AcDbCircle
 10
5.5
 20
7
 40
2.5
  0
LINE
  5
166
100
AcDbEntity
  8
leds 2mm non-ED
  6
ByLayer
 62
  256
370
   -1
100
AcDbLine
 10
3
 20
7
 11
8
 21
7
  0
LINE
  5
167
100
AcDbEntity
  8
leds 2mm non-ED
  6
ByLayer
 62
  256
370
   -1
100
AcDbLine
 10
5.5
 20
4.5
 11
5.5
 21
9.5
  0
CIRCLE
  5
168
100
AcDbEntity
  8
leds 2mm non-ED
  6
ByLayer
 62
  256
370
   -1
100
AcDbCircle
 10
5.5
 20
14
 40
2.5
  0
LINE
  5
169
100
AcDbEntity
  8
leds 2mm non-ED
  6
ByLayer
 62
  256
370
   -1
100
AcDbLine
 10
3
 20
14
 11
8
 21
14
  0
LINE
  5
16A
100
AcDbEntity
  8
leds 2mm non-ED
  6
ByLayer
 62
  256
370
   -1
100
AcDbLine
 10
5.5
 20
11.5
 11
5.5
 21
16.5
  0
CIRCLE
  5
16B
100
AcDbEntity
  8
leds 2mm non-ED
  6
ByLayer
 62
  256
370
   -1
100
AcDbCircle
 10
5.5
 20
21
 40
2.5
  0
LINE
  5
16C
100
AcDbEntity
  8
leds 2mm non-ED
  6
ByLayer
 62
  256
370
   -1
100
AcDbLine
 10
3
 20
21
 11
8
 21
21
  0
LINE
  5
16D
100
AcDbEntity
  8
leds 2mm non-ED
  6
ByLayer
 62
  256
370
   -1
100
AcDbLine
 10
5.5
 20
18.5
 11
5.5
 21
23.5
  0
CIRCLE
  5
16E
100
AcDbEntity
  8
leds 2mm non-ED
  6
ByLayer
 62
  256
370
   -1
100
AcDbCircle
 10
5.5
 20
28
 40
2.5
  0
LINE
  5
16F
100
AcDbEntity
  8
leds 2mm non-ED
  6
ByLayer
 62
  256
370
   -1
100
AcDbLine
 10
3
 20
28
 11
8
 21
28
  0
LINE
  5
170
100
AcDbEntity
  8
leds 2mm non-ED
  6
ByLayer
 62
  256
370
   -1
100
AcDbLine
 10
5.5
 20
25.5
 11
5.5
 21
30.5
  0
CIRCLE
  5
171
100
AcDbEntity
  8
leds 2mm non-ED
  6
ByLayer
 62
  256
370
   -1
100
AcDbCircle
 10
12.5
 20
-28
 40
2.5
  0
LINE
  5
172
100
AcDbEntity
  8
leds 2mm non-ED
  6
ByLayer
 62
  256
370
   -1
100
AcDbLine
 10
10
 20
-28
 11
15
 21
-28
  0
LINE
  5
173
100
AcDbEntity
  8
leds 2mm non-ED
  6
ByLayer
 62
  256
370
   -1
100
AcDbLine
 10
12.5
 20
-30.5
 11
12.5
 21
-25.5
  0
CIRCLE
  5
174
100
AcDbEntity
  8
leds 2mm non-ED
  6
ByLayer
 62
  256
370
   -1
100
AcDbCircle
 10
12.5
 20
0
 40
2.5
  0
LINE
  5
175
100
AcDbEntity
  8
leds 2mm non-ED
  6
ByLayer
 62
  256
370
   -1
100
AcDbLine
 10
10
 20
0
 11
15
 21
0
  0
LINE
  5
176
100
AcDbEntity
  8
leds 2mm non-ED
  6
ByLayer
 62
  256
370
   -1
100
AcDbLine
 10
12.5
 20
-2.5
 11
12.5
 21
2.5
  0
CIRCLE
  5
177
100
AcDbEntity
  8
leds 2mm non-ED
  6
ByLayer
 62
  256
370
   -1
100
AcDbCircle
 10
12.5
 20
28
 40
2.5
  0
LINE
  5
178
100
AcDbEntity
  8
leds 2mm non-ED
  6
ByLayer
 62
  256
370
   -1
100
AcDbLine
 10
10
 20
28
 11
15
 21
28
  0
LINE
  5
179
100
AcDbEntity
  8
leds 2mm non-ED
  6
ByLayer
 62
  256
370
   -1
100
AcDbLine
 10
12.5
 20
25.5
 11
12.5
 21
30.5
  0
CIRCLE
  5
17A
100
AcDbEntity
  8
leds 2mm non-ED
  6
ByLayer
 62
  256
370
   -1
100
AcDbCircle
 10
19.5
 20
-28
 40
2.5
  0
LINE
  5
17B
100
AcDbEntity
  8
leds 2mm non-ED
  6
ByLayer
 62
  256
370
   -1
100
AcDbLine
 10
17
 20
-28
 11
22
 21
-28
  0
LINE
  5
17C
100
AcDbEntity
  8
leds 2mm non-ED
  6
ByLayer
 62
  256
370
   -1
100
AcDbLine
 10
19.5
 20
-30.5
 11
19.5
 21
-25.5
  0
CIRCLE
  5
17D
100
AcDbEntity
  8
leds 2mm non-ED
  6
ByLayer
 62
  256
370
   -1
100
AcDbCircle
 10
19.5
 20
0
 40
2.5
  0
LINE
  5
17E
100
AcDbEntity
  8
leds 2mm non-ED
  6
ByLayer
 62
  256
370
   -1
100
AcDbLine
 10
17
 20
0
 11
22
 21
0
  0
LINE
  5
17F
100
AcDbEntity
  8
leds 2mm non-ED
  6
ByLayer
 62
  256
370
   -1
100
AcDbLine
 10
19.5
 20
-2.5
 11
19.5
 21
2.5
  0
CIRCLE
  5
180
100
AcDbEntity
  8
leds 2mm non-ED
  6
ByLayer
 62
  256
370
   -1
100
AcDbCircle
 10
19.5
 20
28
 40
2.5
  0
LINE
  5
181
100
AcDbEntity
  8
leds 2mm non-ED
  6
ByLayer
 62
  256
370
   -1
100
AcDbLine
 10
17
 20
28
 11
22
 21
28
  0
LINE
  5
182
100
AcDbEntity
  8
leds 2mm non-ED
  6
ByLayer
 62
  256
370
   -1
100
AcDbLine
 10
19.5
 20
25.5
 11
19.5
 21
30.5
  0
CIRCLE
  5
183
100
AcDbEntity
  8
leds 2mm non-ED
  6
ByLayer
 62
  256
370
   -1
100
AcDbCircle
 10
26.5
 20
-28
 40
2.5
  0
LINE
  5
184
100
AcDbEntity
  8
leds 2mm non-ED
  6
ByLayer
 62
  256
370
   -1
100
AcDbLine
 10
24
 20
-28
 11
29
 21
-28
  0
LINE
  5
185
100
AcDbEntity
  8
leds 2mm non-ED
  6
ByLayer
 62
  256
370
   -1
100
AcDbLine
 10
26.5
 20
-30.5
 11
26.5
 21
-25.5
  0
CIRCLE
  5
186
100
AcDbEntity
  8
leds 2mm non-ED
  6
ByLayer
 62
  256
370
   -1
100
AcDbCircle
 10
26.5
 20
0
 40
2.5
  0
LINE
  5
187
100
AcDbEntity
  8
leds 2mm non-ED
  6
ByLayer
 62
  256
370
   -1
100
AcDbLine
 10
24
 20
0
 11
29
 21
0
  0
LINE
  5
188
100
AcDbEntity
  8
leds 2mm non-ED
  6
ByLayer
 62
  256
370
   -1
100
AcDbLine
 10
26.5
 20
-2.5
 11
26.5
 21
2.5
  0
CIRCLE
  5
189
100
AcDbEntity
  8
leds 2mm non-ED
  6
ByLayer
 62
  256
370
   -1
100
AcDbCircle
 10
26.5
 20
28
 40
2.5
  0
LINE
  5
18A
100
AcDbEntity
  8
leds 2mm non-ED
  6
ByLayer
 62
  256
370
   -1
100
AcDbLine
 10
24
 20
28
 11
29
 21
28
  0
LINE
  5
18B
100
AcDbEntity
  8
leds 2mm non-ED
  6
ByLayer
 62
  256
370
   -1
100
AcDbLine
 10
26.5
 20
25.5
 11
26.5
 21
30.5
  0
CIRCLE
  5
18C
100
AcDbEntity
  8
leds 2mm non-ED
  6
ByLayer
 62
  256
370
   -1
100
AcDbCircle
 10
33.5
 20
-28
 40
2.5
  0
LINE
  5
18D
100
AcDbEntity
  8
leds 2mm non-ED
  6
ByLayer
 62
  256
370
   -1
100
AcDbLine
 10
31
 20
-28
 11
36
 21
-28
  0
LINE
  5
18E
100
AcDbEntity
  8
leds 2mm non-ED
  6
ByLayer
 62
  256
370
   -1
100
AcDbLine
 10
33.5
 20
-30.5
 11
33.5
 21
-25.5
  0
CIRCLE
  5
18F
100
AcDbEntity
  8
leds 2mm non-ED
  6
ByLayer
 62
  256
370
   -1
100
AcDbCircle
 10
33.5
 20
-21
 40
2.5
  0
LINE
  5
190
100
AcDbEntity
  8
leds 2mm non-ED
  6
ByLayer
 62
  256
370
   -1
100
AcDbLine
 10
31
 20
-21
 11
36
 21
-21
  0
LINE
  5
191
100
AcDbEntity
  8
leds 2mm non-ED
  6
ByLayer
 62
  256
370
   -1
100
AcDbLine
 10
33.5
 20
-23.5
 11
33.5
 21
-18.5
  0
CIRCLE
  5
192
100
AcDbEntity
  8
leds 2mm non-ED
  6
ByLayer
 62
  256
370
   -1
100
AcDbCircle
 10
33.5
 20
-14
 40
2.5
  0
LINE
  5
193
100
AcDbEntity
  8
leds 2mm non-ED
  6
ByLayer
 62
  256
370
   -1
100
AcDbLine
 10
31
 20
-14
 11
36
 21
-14
  0
LINE
  5
194
100
AcDbEntity
  8
leds 2mm non-ED
  6
ByLayer
 62
  256
370
   -1
100
AcDbLine
 10
33.5
 20
-16.5
 11
33.5
 21
-11.5
  0
CIRCLE
  5
195
100
AcDbEntity
  8
leds 2mm non-ED
  6
ByLayer
 62
  256
370
   -1
100
AcDbCircle
 10
33.5
 20
-7
 40
2.5
  0
LINE
  5
196
100
AcDbEntity
  8
leds 2mm non-ED
  6
ByLayer
 62
  256
370
   -1
100
AcDbLine
 10
31
 20
-7
 11
36
 21
-7
  0
LINE
  5
197
100
AcDbEntity
  8
leds 2mm non-ED
  6
ByLayer
 62
  256
370
   -1
100
AcDbLine
 10
33.5
 20
-9.5
 11
33.5
 21
-4.5
  0
CIRCLE
  5
198
100
AcDbEntity
  8
leds 2mm non-ED
  6
ByLayer
 62
  256
370
   -1
100
AcDbCircle
 10
33.5
 20
0
 40
2.5
  0
LINE
  5
199
100
AcDbEntity
  8
leds 2mm non-ED
  6
ByLayer
 62
  256
370
   -1
100
AcDbLine
 10
31
 20
0
 11
36
 21
0
  0
LINE
  5
19A
100
AcDbEntity
  8
leds 2mm non-ED
  6
ByLayer
 62
  256
370
   -1
100
AcDbLine
 10
33.5
 20
-2.5
 11
33.5
 21
2.5
  0
CIRCLE
  5
19B
100
AcDbEntity
  8
leds 2mm non-ED
  6
ByLayer
 62
  256
370
   -1
100
AcDbCircle
 10
33.5
 20
7
 40
2.5
  0
LINE
  5
19C
100
AcDbEntity
  8
leds 2mm non-ED
  6
ByLayer
 62
  256
370
   -1
100
AcDbLine
 10
31
 20
7
 11
36
 21
7
  0
LINE
  5
19D
100
AcDbEntity
  8
leds 2mm non-ED
  6
ByLayer
 62
  256
370
   -1
100
AcDbLine
 10
33.5
 20
4.5
 11
33.5
 21
9.5
  0
CIRCLE
  5
19E
100
AcDbEntity
  8
leds 2mm non-ED
  6
ByLayer
 62
  256
370
   -1
100
AcDbCircle
 10
33.5
 20
14
 40
2.5
  0
LINE
  5
19F
100
AcDbEntity
  8
leds 2mm non-ED
  6
ByLayer
 62
  256
370
   -1
100
AcDbLine
 10
31
 20
14
 11
36
 21
14
  0
LINE
  5
1A0
100
AcDbEntity
  8
leds 2mm non-ED
  6
ByLayer
 62
  256
370
   -1
100
AcDbLine
 10
33.5
 20
11.5
 11
33.5
 21
16.5
  0
CIRCLE
  5
1A1
100
AcDbEntity
  8
leds 2mm non-ED
  6
ByLayer
 62
  256
370
   -1
100
AcDbCircle
 10
33.5
 20
21
 40
2.5
  0
LINE
  5
1A2
100
AcDbEntity
  8
leds 2mm non-ED
  6
ByLayer
 62
  256
370
   -1
100
AcDbLine
 10
31
 20
21
 11
36
 21
21
  0
LINE
  5
1A3
100
AcDbEntity
  8
leds 2mm non-ED
  6
ByLayer
 62
  256
370
   -1
100
AcDbLine
 10
33.5
 20
18.5
 11
33.5
 21
23.5
  0
CIRCLE
  5
1A4
100
AcDbEntity
  8
leds 2mm non-ED
  6
ByLayer
 62
  256
370
   -1
100
AcDbCircle
 10
33.5
 20
28
 40
2.5
  0
LINE
  5
1A5
100
AcDbEntity
  8
leds 2mm non-ED
  6
ByLayer
 62
  256
370
   -1
100
AcDbLine
 10
31
 20
28
 11
36
 21
28
  0
LINE
  5
1A6
100
AcDbEntity
  8
leds 2mm non-ED
  6
ByLayer
 62
  256
370
   -1
100
AcDbLine
 10
33.5
 20
25.5
 11
33.5
 21
30.5
  0
CIRCLE
  5
1A7
100
AcDbEntity
  8
leds 2mm non-ED
  6
ByLayer
 62
  256
370
   -1
100
AcDbCircle
 10
-33.5
 20
-28
 40
2.5
  0
LINE
  5
1A8
100
AcDbEntity
  8
leds 2mm non-ED
  6
ByLayer
 62
  256
370
   -1
100
AcDbLine
 10
-36
 20
-28
 11
-31
 21
-28
  0
LINE
  5
1A9
100
AcDbEntity
  8
leds 2mm non-ED
  6
ByLayer
 62
  256
370
   -1
100
AcDbLine
 10
-33.5
 20
-30.5
 11
-33.5
 21
-25.5
  0
CIRCLE
  5
1AA
100
AcDbEntity
  8
leds 2mm non-ED
  6
ByLayer
 62
  256
370
   -1
100
AcDbCircle
 10
-33.5
 20
-21
 40
2.5
  0
LINE
  5
1AB
100
AcDbEntity
  8
leds 2mm non-ED
  6
ByLayer
 62
  256
370
   -1
100
AcDbLine
 10
-36
 20
-21
 11
-31
 21
-21
  0
LINE
  5
1AC
100
AcDbEntity
  8
leds 2mm non-ED
  6
ByLayer
 62
  256
370
   -1
100
AcDbLine
 10
-33.5
 20
-23.5
 11
-33.5
 21
-18.5
  0
CIRCLE
  5
1AD
100
AcDbEntity
  8
leds 2mm non-ED
  6
ByLayer
 62
  256
370
   -1
100
AcDbCircle
 10
-33.5
 20
-14
 40
2.5
  0
LINE
  5
1AE
100
AcDbEntity
  8
leds 2mm non-ED
  6
ByLayer
 62
  256
370
   -1
100
AcDbLine
 10
-36
 20
-14
 11
-31
 21
-14
  0
LINE
  5
1AF
100
AcDbEntity
  8
leds 2mm non-ED
  6
ByLayer
 62
  256
370
   -1
100
AcDbLine
 10
-33.5
 20
-16.5
 11
-33.5
 21
-11.5
  0
CIRCLE
  5
1B0
100
AcDbEntity
  8
leds 2mm non-ED
  6
ByLayer
 62
  256
370
   -1
100
AcDbCircle
 10
-33.5
 20
-7
 40
2.5
  0
LINE
  5
1B1
100
AcDbEntity
  8
leds 2mm non-ED
  6
ByLayer
 62
  256
370
   -1
100
AcDbLine
 10
-36
 20
-7
 11
-31
 21
-7
  0
LINE
  5
1B2
100
AcDbEntity
  8
leds 2mm non-ED
  6
ByLayer
 62
  256
370
   -1
100
AcDbLine
 10
-33.5
 20
-9.5
 11
-33.5
 21
-4.5
  0
CIRCLE
  5
1B3
100
AcDbEntity
  8
leds 2mm non-ED
  6
ByLayer
 62
  256
370
   -1
100
AcDbCircle
 10
-33.5
 20
0
 40
2.5
  0
LINE
  5
1B4
100
AcDbEntity
  8
leds 2mm non-ED
  6
ByLayer
 62
  256
370
   -1
100
AcDbLine
 10
-36
 20
0
 11
-31
 21
0
  0
LINE
  5
1B5
100
AcDbEntity
  8
leds 2mm non-ED
  6
ByLayer
 62
  256
370
   -1
100
AcDbLine
 10
-33.5
 20
-2.5
 11
-33.5
 21
2.5
  0
CIRCLE
  5
1B6
100
AcDbEntity
  8
leds 2mm non-ED
  6
ByLayer
 62
  256
370
   -1
100
AcDbCircle
 10
-33.5
 20
7
 40
2.5
  0
LINE
  5
1B7
100
AcDbEntity
  8
leds 2mm non-ED
  6
ByLayer
 62
  256
370
   -1
100
AcDbLine
 10
-36
 20
7
 11
-31
 21
7
  0
LINE
  5
1B8
100
AcDbEntity
  8
leds 2mm non-ED
  6
ByLayer
 62
  256
370
   -1
100
AcDbLine
 10
-33.5
 20
4.5
 11
-33.5
 21
9.5
  0
CIRCLE
  5
1B9
100
AcDbEntity
  8
leds 2mm non-ED
  6
ByLayer
 62
  256
370
   -1
100
AcDbCircle
 10
-33.5
 20
14
 40
2.5
  0
LINE
  5
1BA
100
AcDbEntity
  8
leds 2mm non-ED
  6
ByLayer
 62
  256
370
   -1
100
AcDbLine
 10
-36
 20
14
 11
-31
 21
14
  0
LINE
  5
1BB
100
AcDbEntity
  8
leds 2mm non-ED
  6
ByLayer
 62
  256
370
   -1
100
AcDbLine
 10
-33.5
 20
11.5
 11
-33.5
 21
16.5
  0
CIRCLE
  5
1BC
100
AcDbEntity
  8
leds 2mm non-ED
  6
ByLayer
 62
  256
370
   -1
100
AcDbCircle
 10
-33.5
 20
21
 40
2.5
  0
LINE
  5
1BD
100
AcDbEntity
  8
leds 2mm non-ED
  6
ByLayer
 62
  256
370
   -1
100
AcDbLine
 10
-36
 20
21
 11
-31
 21
21
  0
LINE
  5
1BE
100
AcDbEntity
  8
leds 2mm non-ED
  6
ByLayer
 62
  256
370
   -1
100
AcDbLine
 10
-33.5
 20
18.5
 11
-33.5
 21
23.5
  0
CIRCLE
  5
1BF
100
AcDbEntity
  8
leds 2mm non-ED
  6
ByLayer
 62
  256
370
   -1
100
AcDbCircle
 10
-33.5
 20
28
 40
2.5
  0
LINE
  5
1C0
100
AcDbEntity
  8
leds 2mm non-ED
  6
ByLayer
 62
  256
370
   -1
100
AcDbLine
 10
-36
 20
28
 11
-31
 21
28
  0
LINE
  5
1C1
100
AcDbEntity
  8
leds 2mm non-ED
  6
ByLayer
 62
  256
370
   -1
100
AcDbLine
 10
-33.5
 20
25.5
 11
-33.5
 21
30.5
  0
CIRCLE
  5
1C2
100
AcDbEntity
  8
leds 2mm non-ED
  6
ByLayer
 62
  256
370
   -1
100
AcDbCircle
 10
-26.5
 20
-28
 40
2.5
  0
LINE
  5
1C3
100
AcDbEntity
  8
leds 2mm non-ED
  6
ByLayer
 62
  256
370
   -1
100
AcDbLine
 10
-29
 20
-28
 11
-24
 21
-28
  0
LINE
  5
1C4
100
AcDbEntity
  8
leds 2mm non-ED
  6
ByLayer
 62
  256
370
   -1
100
AcDbLine
 10
-26.5
 20
-30.5
 11
-26.5
 21
-25.5
  0
CIRCLE
  5
1C5
100
AcDbEntity
  8
leds 2mm non-ED
  6
ByLayer
 62
  256
370
   -1
100
AcDbCircle
 10
-26.5
 20
0
 40
2.5
  0
LINE
  5
1C6
100
AcDbEntity
  8
leds 2mm non-ED
  6
ByLayer
 62
  256
370
   -1
100
AcDbLine
 10
-29
 20
0
 11
-24
 21
0
  0
LINE
  5
1C7
100
AcDbEntity
  8
leds 2mm non-ED
  6
ByLayer
 62
  256
370
   -1
100
AcDbLine
 10
-26.5
 20
-2.5
 11
-26.5
 21
2.5
  0
CIRCLE
  5
1C8
100
AcDbEntity
  8
leds 2mm non-ED
  6
ByLayer
 62
  256
370
   -1
100
AcDbCircle
 10
-26.5
 20
28
 40
2.5
  0
LINE
  5
1C9
100
AcDbEntity
  8
leds 2mm non-ED
  6
ByLayer
 62
  256
370
   -1
100
AcDbLine
 10
-29
 20
28
 11
-24
 21
28
  0
LINE
  5
1CA
100
AcDbEntity
  8
leds 2mm non-ED
  6
ByLayer
 62
  256
370
   -1
100
AcDbLine
 10
-26.5
 20
25.5
 11
-26.5
 21
30.5
  0
CIRCLE
  5
1CB
100
AcDbEntity
  8
leds 2mm non-ED
  6
ByLayer
 62
  256
370
   -1
100
AcDbCircle
 10
-19.5
 20
-28
 40
2.5
  0
LINE
  5
1CC
100
AcDbEntity
  8
leds 2mm non-ED
  6
ByLayer
 62
  256
370
   -1
100
AcDbLine
 10
-22
 20
-28
 11
-17
 21
-28
  0
LINE
  5
1CD
100
AcDbEntity
  8
leds 2mm non-ED
  6
ByLayer
 62
  256
370
   -1
100
AcDbLine
 10
-19.5
 20
-30.5
 11
-19.5
 21
-25.5
  0
CIRCLE
  5
1CE
100
AcDbEntity
  8
leds 2mm non-ED
  6
ByLayer
 62
  256
370
   -1
100
AcDbCircle
 10
-19.5
 20
0
 40
2.5
  0
LINE
  5
1CF
100
AcDbEntity
  8
leds 2mm non-ED
  6
ByLayer
 62
  256
370
   -1
100
AcDbLine
 10
-22
 20
0
 11
-17
 21
0
  0
LINE
  5
1D0
100
AcDbEntity
  8
leds 2mm non-ED
  6
ByLayer
 62
  256
370
   -1
100
AcDbLine
 10
-19.5
 20
-2.5
 11
-19.5
 21
2.5
  0
CIRCLE
  5
1D1
100
AcDbEntity
  8
leds 2mm non-ED
  6
ByLayer
 62
  256
370
   -1
100
AcDbCircle
 10
-19.5
 20
28
 40
2.5
  0
LINE
  5
1D2
100
AcDbEntity
  8
leds 2mm non-ED
  6
ByLayer
 62
  256
370
   -1
100
AcDbLine
 10
-22
 20
28
 11
-17
 21
28
  0
LINE
  5
1D3
100
AcDbEntity
  8
leds 2mm non-ED
  6
ByLayer
 62
  256
370
   -1
100
AcDbLine
 10
-19.5
 20
25.5
 11
-19.5
 21
30.5
  0
CIRCLE
  5
1D4
100
AcDbEntity
  8
leds 2mm non-ED
  6
ByLayer
 62
  256
370
   -1
100
AcDbCircle
 10
-12.5
 20
-28
 40
2.5
  0
LINE
  5
1D5
100
AcDbEntity
  8
leds 2mm non-ED
  6
ByLayer
 62
  256
370
   -1
100
AcDbLine
 10
-15
 20
-28
 11
-10
 21
-28
  0
LINE
  5
1D6
100
AcDbEntity
  8
leds 2mm non-ED
  6
ByLayer
 62
  256
370
   -1
100
AcDbLine
 10
-12.5
 20
-30.5
 11
-12.5
 21
-25.5
  0
CIRCLE
  5
1D7
100
AcDbEntity
  8
leds 2mm non-ED
  6
ByLayer
 62
  256
370
   -1
100
AcDbCircle
 10
-12.5
 20
0
 40
2.5
  0
LINE
  5
1D8
100
AcDbEntity
  8
leds 2mm non-ED
  6
ByLayer
 62
  256
370
   -1
100
AcDbLine
 10
-15
 20
0
 11
-10
 21
0
  0
LINE
  5
1D9
100
AcDbEntity
  8
leds 2mm non-ED
  6
ByLayer
 62
  256
370
   -1
100
AcDbLine
 10
-12.5
 20
-2.5
 11
-12.5
 21
2.5
  0
CIRCLE
  5
1DA
100
AcDbEntity
  8
leds 2mm non-ED
  6
ByLayer
 62
  256
370
   -1
100
AcDbCircle
 10
-12.5
 20
28
 40
2.5
  0
LINE
  5
1DB
100
AcDbEntity
  8
leds 2mm non-ED
  6
ByLayer
 62
  256
370
   -1
100
AcDbLine
 10
-15
 20
28
 11
-10
 21
28
  0
LINE
  5
1DC
100
AcDbEntity
  8
leds 2mm non-ED
  6
ByLayer
 62
  256
370
   -1
100
AcDbLine
 10
-12.5
 20
25.5
 11
-12.5
 21
30.5
  0
CIRCLE
  5
1DD
100
AcDbEntity
  8
leds 2mm non-ED
  6
ByLayer
 62
  256
370
   -1
100
AcDbCircle
 10
-5.5
 20
-28
 40
2.5
  0
LINE
  5
1DE
100
AcDbEntity
  8
leds 2mm non-ED
  6
ByLayer
 62
  256
370
   -1
100
AcDbLine
 10
-8
 20
-28
 11
-3
 21
-28
  0
LINE
  5
1DF
100
AcDbEntity
  8
leds 2mm non-ED
  6
ByLayer
 62
  256
370
   -1
100
AcDbLine
 10
-5.5
 20
-30.5
 11
-5.5
 21
-25.5
  0
CIRCLE
  5
1E0
100
AcDbEntity
  8
leds 2mm non-ED
  6
ByLayer
 62
  256
370
   -1
100
AcDbCircle
 10
-5.5
 20
-21
 40
2.5
  0
LINE
  5
1E1
100
AcDbEntity
  8
leds 2mm non-ED
  6
ByLayer
 62
  256
370
   -1
100
AcDbLine
 10
-8
 20
-21
 11
-3
 21
-21
  0
LINE
  5
1E2
100
AcDbEntity
  8
leds 2mm non-ED
  6
ByLayer
 62
  256
370
   -1
100
AcDbLine
 10
-5.5
 20
-23.5
 11
-5.5
 21
-18.5
  0
CIRCLE
  5
1E3
100
AcDbEntity
  8
leds 2mm non-ED
  6
ByLayer
 62
  256
370
   -1
100
AcDbCircle
 10
-5.5
 20
-14
 40
2.5
  0
LINE
  5
1E4
100
AcDbEntity
  8
leds 2mm non-ED
  6
ByLayer
 62
  256
370
   -1
100
AcDbLine
 10
-8
 20
-14
 11
-3
 21
-14
  0
LINE
  5
1E5
100
AcDbEntity
  8
leds 2mm non-ED
  6
ByLayer
 62
  256
370
   -1
100
AcDbLine
 10
-5.5
 20
-16.5
 11
-5.5
 21
-11.5
  0
CIRCLE
  5
1E6
100
AcDbEntity
  8
leds 2mm non-ED
  6
ByLayer
 62
  256
370
   -1
100
AcDbCircle
 10
-5.5
 20
-7
 40
2.5
  0
LINE
  5
1E7
100
AcDbEntity
  8
leds 2mm non-ED
  6
ByLayer
 62
  256
370
   -1
100
AcDbLine
 10
-8
 20
-7
 11
-3
 21
-7
  0
LINE
  5
1E8
100
AcDbEntity
  8
leds 2mm non-ED
  6
ByLayer
 62
  256
370
   -1
100
AcDbLine
 10
-5.5
 20
-9.5
 11
-5.5
 21
-4.5
  0
CIRCLE
  5
1E9
100
AcDbEntity
  8
leds 2mm non-ED
  6
ByLayer
 62
  256
370
   -1
100
AcDbCircle
 10
-5.5
 20
0
 40
2.5
  0
LINE
  5
1EA
100
AcDbEntity
  8
leds 2mm non-ED
  6
ByLayer
 62
  256
370
   -1
100
AcDbLine
 10
-8
 20
0
 11
-3
 21
0
  0
LINE
  5
1EB
100
AcDbEntity
  8
leds 2mm non-ED
  6
ByLayer
 62
  256
370
   -1
100
AcDbLine
 10
-5.5
 20
-2.5
 11
-5.5
 21
2.5
  0
CIRCLE
  5
1EC
100
AcDbEntity
  8
leds 2mm non-ED
  6
ByLayer
 62
  256
370
   -1
100
AcDbCircle
 10
-5.5
 20
7
 40
2.5
  0
LINE
  5
1ED
100
AcDbEntity
  8
leds 2mm non-ED
  6
ByLayer
 62
  256
370
   -1
100
AcDbLine
 10
-8
 20
7
 11
-3
 21
7
  0
LINE
  5
1EE
100
AcDbEntity
  8
leds 2mm non-ED
  6
ByLayer
 62
  256
370
   -1
100
AcDbLine
 10
-5.5
 20
4.5
 11
-5.5
 21
9.5
  0
CIRCLE
  5
1EF
100
AcDbEntity
  8
leds 2mm non-ED
  6
ByLayer
 62
  256
370
   -1
100
AcDbCircle
 10
-5.5
 20
14
 40
2.5
  0
LINE
  5
1F0
100
AcDbEntity
  8
leds 2mm non-ED
  6
ByLayer
 62
  256
370
   -1
100
AcDbLine
 10
-8
 20
14
 11
-3
 21
14
  0
LINE
  5
1F1
100
AcDbEntity
  8
leds 2mm non-ED
  6
ByLayer
 62
  256
370
   -1
100
AcDbLine
 10
-5.5
 20
11.5
 11
-5.5
 21
16.5
  0
CIRCLE
  5
1F2
100
AcDbEntity
  8
leds 2mm non-ED
  6
ByLayer
 62
  256
370
   -1
100
AcDbCircle
 10
-5.5
 20
21
 40
2.5
  0
LINE
  5
1F3
100
AcDbEntity
  8
leds 2mm non-ED
  6
ByLayer
 62
  256
370
   -1
100
AcDbLine
 10
-8
 20
21
 11
-3
 21
21
  0
LINE
  5
1F4
100
AcDbEntity
  8
leds 2mm non-ED
  6
ByLayer
 62
  256
370
   -1
100
AcDbLine
 10
-5.5
 20
18.5
 11
-5.5
 21
23.5
  0
CIRCLE
  5
1F5
100
AcDbEntity
  8
leds 2mm non-ED
  6
ByLayer
 62
  256
370
   -1
100
AcDbCircle
 10
-5.5
 20
28
 40
2.5
  0
LINE
  5
1F6
100
AcDbEntity
  8
leds 2mm non-ED
  6
ByLayer
 62
  256
370
   -1
100
AcDbLine
 10
-8
 20
28
 11
-3
 21
28
  0
LINE
  5
1F7
100
AcDbEntity
  8
leds 2mm non-ED
  6
ByLayer
 62
  256
370
   -1
100
AcDbLine
 10
-5.5
 20
25.5
 11
-5.5
 21
30.5
  0
DIMENSION
  5
1F8
100
AcDbEntity
  8
dim leds 2mm non-ED
  6
ByLayer
 62
  256
370
   -1
100
AcDbDimension
  2
*D5
 10
36
 20
33.84633830307218
 30
0
 11
19.5
 21
38.53383830307218
 31
0
 70
   33
 71
    5
 72
    0
  3
Standard
 53
0
210
0
220
0
230
1
100
AcDbAlignedDimension
 13
3
 23
28
 33
0
 14
36
 24
28
 34
0
  0
DIMENSION
  5
1F9
100
AcDbEntity
  8
dim leds 2mm non-ED
  6
ByLayer
 62
  256
370
   -1
100
AcDbDimension
  2
*D6
 10
39.96929397598976
 20
-30.5
 30
0
 11
35.28179397598976
 21
5.740342283542393e-016
 31
0
 70
   33
 71
    5
 72
    0
  3
Standard
 53
0
210
0
220
0
230
1
100
AcDbAlignedDimension
 13
33.5
 23
30.5
 33
0
 14
33.5
 24
-30.5
 34
0
  0
DIMENSION
  5
1FA
100
AcDbEntity
  8
dim frame 140mm
  6
ByLayer
 62
  256
370
   -1
100
AcDbDimension
  2
*D7
 10
113
 20
73.09890630112653
 30
0
 11
2.870171141771197e-016
 21
77.78640630112653
 31
0
 70
   33
 71
    5
 72
    0
  3
Standard
 53
0
210
0
220
0
230
1
100
AcDbAlignedDimension
 13
-113
 23
70
 33
0
 14
113
 24
70
 34
0
  0
DIMENSION
  5
1FB
100
AcDbEntity
  8
dim frame 140mm
  6
ByLayer
 62
  256
370
   -1
100
AcDbDimension
  2
*D8
 10
117.963843501818
 20
-70
 30
0
 11
113.276343501818
 21
5.740342283542393e-016
 31
0
 70
   33
 71
    5
 72
    0
  3
Standard
 53
0
210
0
220
0
230
1
100
AcDbAlignedDimension
 13
113
 23
70
 33
0
 14
113
 24
-70
 34
0
  0
DIMENSION
  5
1FC
100
AcDbEntity
  8
dim frame 120mm
  6
ByLayer
 62
  256
370
   -1
100
AcDbDimension
  2
*D9
 10
102.9023746701858
 20
-60
 30
0
 11
98.21487467018579
 21
5.740342283542393e-016
 31
0
 70
   33
 71
    5
 72
    0
  3
Standard
 53
0
210
0
220
0
230
1
100
AcDbAlignedDimension
 13
97
 23
60
 33
0
 14
97
 24
-60
 34
0
  0
DIMENSION
  5
1FD
100
AcDbEntity
  8
dim frame 120mm
  6
ByLayer
 62
  256
370
   -1
100
AcDbDimension
  2
*D10
 10
97
 20
64.42392260334285
 30
0
 11
2.870171141771197e-016
 21
69.11142260334285
 31
0
 70
   33
 71
    5
 72
    0
  3
Standard
 53
0
210
0
220
0
230
1
100
AcDbAlignedDimension
 13
-97
 23
60
 33
0
 14
97
 24
60
 34
0
  0
DIMENSION
  5
1FE
100
AcDbEntity
  8
dim hours 50mm
  6
ByLayer
 62
  256
370
   -1
100
AcDbDimension
  2
*D11
 10
2.5
 20
50
 30
0
 11
-2.1875
 21
25
 31
0
 70
   33
 71
    5
 72
    0
  3
Standard
 53
0
210
0
220
0
230
1
100
AcDbAlignedDimension
 13
0
 23
0
 33
0
 14
0
 24
50
 34
0
  0
CIRCLE
  5
1FF
100
AcDbEntity
  8
hours 52.5mm
  6
ByLayer
 62
  256
370
   -1
100
AcDbCircle
 10
0
 20
52.5
 40
2.5
  0
LINE
  5
200
100
AcDbEntity
  8
hours 52.5mm
  6
ByLayer
 62
  256
370
   -1
100
AcDbLine
 10
-2.5
 20
52.5
 11
2.5
 21
52.5
  0
LINE
  5
201
100
AcDbEntity
  8
hours 52.5mm
  6
ByLayer
 62
  256
370
   -1
100
AcDbLine
 10
0
 20
50
 11
0
 21
55
  0
DIMENSION
  5
202
100
AcDbEntity
  8
dim hours 52.5mm
  6
ByLayer
 62
  256
370
   -1
100
AcDbDimension
  2
*D12
 10
2.5
 20
52.5
 30
0
 11
-2.1875
 21
26.25
 31
0
 70
   33
 71
    5
 72
    0
  3
Standard
 53
0
210
0
220
0
230
1
100
AcDbAlignedDimension
 13
0
 23
0
 33
0
 14
1.530757942277972e-016
 24
52.5
 34
0
  0
CIRCLE
  5
203
100
AcDbEntity
  8
hours 52.5mm
  6
ByLayer
 62
  256
370
   -1
100
AcDbCircle
 10
-26.25
 20
45.46633369868303
 40
2.5
  0
LINE
  5
204
100
AcDbEntity
  8
hours 52.5mm
  6
ByLayer
 62
  256
370
   -1
100
AcDbLine
 10
-28.4150635094611
 20
44.21633369868303
 11
-24.0849364905389
 21
46.71633369868303
  0
LINE
  5
205
100
AcDbEntity
  8
hours 52.5mm
  6
ByLayer
 62
  256
370
   -1
100
AcDbLine
 10
-25
 20
43.30127018922194
 11
-27.5
 21
47.63139720814413
  0
CIRCLE
  5
206
100
AcDbEntity
  8
hours 52.5mm
  6
ByLayer
 62
  256
370
   -1
100
AcDbCircle
 10
-45.46633369868302
 20
26.25000000000001
 40
2.5
  0
LINE
  5
207
100
AcDbEntity
  8
hours 52.5mm
  6
ByLayer
 62
  256
370
   -1
100
AcDbLine
 10
-46.71633369868302
 20
24.08493649053891
 11
-44.21633369868302
 21
28.4150635094611
  0
LINE
  5
208
100
AcDbEntity
  8
hours 52.5mm
  6
ByLayer
 62
  256
370
   -1
100
AcDbLine
 10
-43.30127018922193
 20
25.00000000000001
 11
-47.63139720814412
 21
27.50000000000001
  0
CIRCLE
  5
209
100
AcDbEntity
  8
hours 52.5mm
  6
ByLayer
 62
  256
370
   -1
100
AcDbCircle
 10
-52.5
 20
3.21459167878374e-015
 40
2.5
  0
LINE
  5
20A
100
AcDbEntity
  8
hours 52.5mm
  6
ByLayer
 62
  256
370
   -1
100
AcDbLine
 10
-52.5
 20
-2.499999999999997
 11
-52.5
 21
2.500000000000003
  0
LINE
  5
20B
100
AcDbEntity
  8
hours 52.5mm
  6
ByLayer
 62
  256
370
   -1
100
AcDbLine
 10
-50
 20
3.061515884555943e-015
 11
-55
 21
3.367667473011537e-015
  0
CIRCLE
  5
20C
100
AcDbEntity
  8
hours 52.5mm
  6
ByLayer
 62
  256
370
   -1
100
AcDbCircle
 10
-45.46633369868303
 20
-26.24999999999999
 40
2.5
  0
LINE
  5
20D
100
AcDbEntity
  8
hours 52.5mm
  6
ByLayer
 62
  256
370
   -1
100
AcDbLine
 10
-44.21633369868303
 20
-28.41506350946108
 11
-46.71633369868303
 21
-24.08493649053889
  0
LINE
  5
20E
100
AcDbEntity
  8
hours 52.5mm
  6
ByLayer
 62
  256
370
   -1
100
AcDbLine
 10
-43.30127018922194
 20
-24.99999999999999
 11
-47.63139720814413
 21
-27.49999999999999
  0
CIRCLE
  5
20F
100
AcDbEntity
  8
hours 52.5mm
  6
ByLayer
 62
  256
370
   -1
100
AcDbCircle
 10
-26.25000000000002
 20
-45.46633369868302
 40
2.5
  0
LINE
  5
210
100
AcDbEntity
  8
hours 52.5mm
  6
ByLayer
 62
  256
370
   -1
100
AcDbLine
 10
-24.08493649053892
 20
-46.71633369868302
 11
-28.41506350946111
 21
-44.21633369868302
  0
LINE
  5
211
100
AcDbEntity
  8
hours 52.5mm
  6
ByLayer
 62
  256
370
   -1
100
AcDbLine
 10
-25.00000000000002
 20
-43.30127018922192
 11
-27.50000000000002
 21
-47.63139720814412
  0
CIRCLE
  5
212
100
AcDbEntity
  8
hours 52.5mm
  6
ByLayer
 62
  256
370
   -1
100
AcDbCircle
 10
-6.429183357567481e-015
 20
-52.5
 40
2.5
  0
LINE
  5
213
100
AcDbEntity
  8
hours 52.5mm
  6
ByLayer
 62
  256
370
   -1
100
AcDbLine
 10
2.499999999999994
 20
-52.5
 11
-2.500000000000006
 21
-52.5
  0
LINE
  5
214
100
AcDbEntity
  8
hours 52.5mm
  6
ByLayer
 62
  256
370
   -1
100
AcDbLine
 10
-6.123031769111886e-015
 20
-50
 11
-6.735334946023075e-015
 21
-55
  0
CIRCLE
  5
215
100
AcDbEntity
  8
hours 52.5mm
  6
ByLayer
 62
  256
370
   -1
100
AcDbCircle
 10
26.24999999999999
 20
-45.46633369868304
 40
2.5
  0
LINE
  5
216
100
AcDbEntity
  8
hours 52.5mm
  6
ByLayer
 62
  256
370
   -1
100
AcDbLine
 10
28.41506350946108
 20
-44.21633369868304
 11
24.08493649053889
 21
-46.71633369868304
  0
LINE
  5
217
100
AcDbEntity
  8
hours 52.5mm
  6
ByLayer
 62
  256
370
   -1
100
AcDbLine
 10
24.99999999999999
 20
-43.30127018922194
 11
27.49999999999999
 21
-47.63139720814414
  0
CIRCLE
  5
218
100
AcDbEntity
  8
hours 52.5mm
  6
ByLayer
 62
  256
370
   -1
100
AcDbCircle
 10
45.46633369868302
 20
-26.25000000000002
 40
2.5
  0
LINE
  5
219
100
AcDbEntity
  8
hours 52.5mm
  6
ByLayer
 62
  256
370
   -1
100
AcDbLine
 10
46.71633369868302
 20
-24.08493649053893
 11
44.21633369868302
 21
-28.41506350946112
  0
LINE
  5
21A
100
AcDbEntity
  8
hours 52.5mm
  6
ByLayer
 62
  256
370
   -1
100
AcDbLine
 10
43.30127018922192
 20
-25.00000000000002
 11
47.63139720814411
 21
-27.50000000000002
  0
CIRCLE
  5
21B
100
AcDbEntity
  8
hours 52.5mm
  6
ByLayer
 62
  256
370
   -1
100
AcDbCircle
 10
52.5
 20
-9.643775036351221e-015
 40
2.5
  0
LINE
  5
21C
100
AcDbEntity
  8
hours 52.5mm
  6
ByLayer
 62
  256
370
   -1
100
AcDbLine
 10
52.5
 20
2.49999999999999
 11
52.5
 21
-2.50000000000001
  0
LINE
  5
21D
100
AcDbEntity
  8
hours 52.5mm
  6
ByLayer
 62
  256
370
   -1
100
AcDbLine
 10
50
 20
-9.184547653667829e-015
 11
55
 21
-1.010300241903461e-014
  0
CIRCLE
  5
21E
100
AcDbEntity
  8
hours 52.5mm
  6
ByLayer
 62
  256
370
   -1
100
AcDbCircle
 10
45.46633369868305
 20
26.24999999999996
 40
2.5
  0
LINE
  5
21F
100
AcDbEntity
  8
hours 52.5mm
  6
ByLayer
 62
  256
370
   -1
100
AcDbLine
 10
44.21633369868305
 20
28.41506350946106
 11
46.71633369868304
 21
24.08493649053887
  0
LINE
  5
220
100
AcDbEntity
  8
hours 52.5mm
  6
ByLayer
 62
  256
370
   -1
100
AcDbLine
 10
43.30127018922195
 20
24.99999999999997
 11
47.63139720814415
 21
27.49999999999996
  0
CIRCLE
  5
221
100
AcDbEntity
  8
hours 52.5mm
  6
ByLayer
 62
  256
370
   -1
100
AcDbCircle
 10
26.25000000000002
 20
45.46633369868302
 40
2.5
  0
LINE
  5
222
100
AcDbEntity
  8
hours 52.5mm
  6
ByLayer
 62
  256
370
   -1
100
AcDbLine
 10
24.08493649053893
 20
46.71633369868302
 11
28.41506350946112
 21
44.21633369868302
  0
LINE
  5
223
100
AcDbEntity
  8
hours 52.5mm
  6
ByLayer
 62
  256
370
   -1
100
AcDbLine
 10
25.00000000000002
 20
43.30127018922192
 11
27.50000000000002
 21
47.63139720814411
  0
LINE
  5
224
100
AcDbEntity
  8
leds 2mm ED
  6
ByLayer
 62
  256
370
   -1
100
AcDbLine
 10
-28.062
 20
21
 11
-23.062
 21
21
  0
LINE
  5
225
100
AcDbEntity
  8
leds 2mm ED
  6
ByLayer
 62
  256
370
   -1
100
AcDbLine
 10
-25.562
 20
23.5
 11
-25.562
 21
18.5
  0
LINE
  5
226
100
AcDbEntity
  8
leds 2mm ED
  6
ByLayer
 62
  256
370
   -1
100
AcDbLine
 10
-18.562
 20
23.5
 11
-18.562
 21
18.5
  0
LINE
  5
227
100
AcDbEntity
  8
leds 2mm ED
  6
ByLayer
 62
  256
370
   -1
100
AcDbLine
 10
-21.062
 20
21
 11
-16.062
 21
21
  0
LINE
  5
228
100
AcDbEntity
  8
leds 2mm ED
  6
ByLayer
 62
  256
370
   -1
100
AcDbLine
 10
-14.062
 20
21
 11
-9.062000000000001
 21
21
  0
LINE
  5
229
100
AcDbEntity
  8
leds 2mm ED
  6
ByLayer
 62
  256
370
   -1
100
AcDbLine
 10
-11.562
 20
23.5
 11
-11.562
 21
18.5
  0
LINE
  5
22A
100
AcDbEntity
  8
leds 2mm ED
  6
ByLayer
 62
  256
370
   -1
100
AcDbLine
 10
-8.000000000000004
 20
17.5
 11
-3.000000000000004
 21
17.5
  0
LINE
  5
22B
100
AcDbEntity
  8
leds 2mm ED
  6
ByLayer
 62
  256
370
   -1
100
AcDbLine
 10
-5.500000000000004
 20
20
 11
-5.500000000000004
 21
15
  0
LINE
  5
22C
100
AcDbEntity
  8
leds 2mm ED
  6
ByLayer
 62
  256
370
   -1
100
AcDbLine
 10
-8.000000000000004
 20
10.5
 11
-3.000000000000004
 21
10.5
  0
LINE
  5
22D
100
AcDbEntity
  8
leds 2mm ED
  6
ByLayer
 62
  256
370
   -1
100
AcDbLine
 10
-5.500000000000004
 20
13
 11
-5.500000000000004
 21
8
  0
LINE
  5
22E
100
AcDbEntity
  8
leds 2mm ED
  6
ByLayer
 62
  256
370
   -1
100
AcDbLine
 10
-31.624
 20
20
 11
-31.624
 21
15
  0
LINE
  5
22F
100
AcDbEntity
  8
leds 2mm ED
  6
ByLayer
 62
  256
370
   -1
100
AcDbLine
 10
-34.124
 20
17.5
 11
-29.124
 21
17.5
  0
LINE
  5
230
100
AcDbEntity
  8
leds 2mm ED
  6
ByLayer
 62
  256
370
   -1
100
AcDbLine
 10
-31.624
 20
13
 11
-31.624
 21
8
  0
LINE
  5
231
100
AcDbEntity
  8
leds 2mm ED
  6
ByLayer
 62
  256
370
   -1
100
AcDbLine
 10
-34.124
 20
10.5
 11
-29.124
 21
10.5
  0
LINE
  5
232
100
AcDbEntity
  8
leds 2mm ED
  6
ByLayer
 62
  256
370
   -1
100
AcDbLine
 10
-31.624
 20
6
 11
-31.624
 21
1
  0
LINE
  5
233
100
AcDbEntity
  8
leds 2mm ED
  6
ByLayer
 62
  256
370
   -1
100
AcDbLine
 10
-34.124
 20
3.5
 11
-29.124
 21
3.5
  0
LINE
  5
234
100
AcDbEntity
  8
leds 2mm ED
  6
ByLayer
 62
  256
370
   -1
100
AcDbLine
 10
-25.562
 20
2.5
 11
-25.562
 21
-2.5
  0
LINE
  5
235
100
AcDbEntity
  8
leds 2mm ED
  6
ByLayer
 62
  256
370
   -1
100
AcDbLine
 10
-28.062
 20
3.061515884555943e-016
 11
-23.062
 21
-6.123031769111886e-016
  0
LINE
  5
236
100
AcDbEntity
  8
leds 2mm ED
  6
ByLayer
 62
  256
370
   -1
100
AcDbLine
 10
-21.062
 20
3.061515884555943e-016
 11
-16.062
 21
0
  0
LINE
  5
237
100
AcDbEntity
  8
leds 2mm ED
  6
ByLayer
 62
  256
370
   -1
100
AcDbLine
 10
-18.562
 20
2.5
 11
-18.562
 21
-2.5
  0
LINE
  5
238
100
AcDbEntity
  8
leds 2mm ED
  6
ByLayer
 62
  256
370
   -1
100
AcDbLine
 10
-14.062
 20
3.061515884555943e-016
 11
-9.062000000000001
 21
-6.123031769111886e-016
  0
LINE
  5
239
100
AcDbEntity
  8
leds 2mm ED
  6
ByLayer
 62
  256
370
   -1
100
AcDbLine
 10
-11.562
 20
2.5
 11
-11.562
 21
-2.5
  0
LINE
  5
23A
100
AcDbEntity
  8
leds 2mm ED
  6
ByLayer
 62
  256
370
   -1
100
AcDbLine
 10
-8.000000000000004
 20
3.5
 11
-3.000000000000004
 21
3.5
  0
LINE
  5
23B
100
AcDbEntity
  8
leds 2mm ED
  6
ByLayer
 62
  256
370
   -1
100
AcDbLine
 10
-5.500000000000004
 20
6
 11
-5.500000000000004
 21
1
  0
LINE
  5
23C
100
AcDbEntity
  8
leds 2mm ED
  6
ByLayer
 62
  256
370
   -1
100
AcDbLine
 10
-31.624
 20
-1
 11
-31.624
 21
-6
  0
LINE
  5
23D
100
AcDbEntity
  8
leds 2mm ED
  6
ByLayer
 62
  256
370
   -1
100
AcDbLine
 10
-34.124
 20
-3.5
 11
-29.124
 21
-3.5
  0
LINE
  5
23E
100
AcDbEntity
  8
leds 2mm ED
  6
ByLayer
 62
  256
370
   -1
100
AcDbLine
 10
-31.624
 20
-8
 11
-31.624
 21
-13
  0
LINE
  5
23F
100
AcDbEntity
  8
leds 2mm ED
  6
ByLayer
 62
  256
370
   -1
100
AcDbLine
 10
-34.124
 20
-10.5
 11
-29.124
 21
-10.5
  0
LINE
  5
240
100
AcDbEntity
  8
leds 2mm ED
  6
ByLayer
 62
  256
370
   -1
100
AcDbLine
 10
-31.624
 20
-15
 11
-31.624
 21
-20
  0
LINE
  5
241
100
AcDbEntity
  8
leds 2mm ED
  6
ByLayer
 62
  256
370
   -1
100
AcDbLine
 10
-34.124
 20
-17.5
 11
-29.124
 21
-17.5
  0
LINE
  5
242
100
AcDbEntity
  8
leds 2mm ED
  6
ByLayer
 62
  256
370
   -1
100
AcDbLine
 10
-28.062
 20
-21
 11
-23.062
 21
-21
  0
LINE
  5
243
100
AcDbEntity
  8
leds 2mm ED
  6
ByLayer
 62
  256
370
   -1
100
AcDbLine
 10
-25.562
 20
-18.5
 11
-25.562
 21
-23.5
  0
LINE
  5
244
100
AcDbEntity
  8
leds 2mm ED
  6
ByLayer
 62
  256
370
   -1
100
AcDbLine
 10
-21.062
 20
-21
 11
-16.062
 21
-21
  0
LINE
  5
245
100
AcDbEntity
  8
leds 2mm ED
  6
ByLayer
 62
  256
370
   -1
100
AcDbLine
 10
-18.562
 20
-18.5
 11
-18.562
 21
-23.5
  0
LINE
  5
246
100
AcDbEntity
  8
leds 2mm ED
  6
ByLayer
 62
  256
370
   -1
100
AcDbLine
 10
-14.062
 20
-21
 11
-9.062000000000001
 21
-21
  0
LINE
  5
247
100
AcDbEntity
  8
leds 2mm ED
  6
ByLayer
 62
  256
370
   -1
100
AcDbLine
 10
-11.562
 20
-18.5
 11
-11.562
 21
-23.5
  0
LINE
  5
248
100
AcDbEntity
  8
leds 2mm ED
  6
ByLayer
 62
  256
370
   -1
100
AcDbLine
 10
-8.000000000000004
 20
-17.5
 11
-3.000000000000004
 21
-17.5
  0
LINE
  5
249
100
AcDbEntity
  8
leds 2mm ED
  6
ByLayer
 62
  256
370
   -1
100
AcDbLine
 10
-5.500000000000004
 20
-15
 11
-5.500000000000004
 21
-20
  0
LINE
  5
24A
100
AcDbEntity
  8
leds 2mm ED
  6
ByLayer
 62
  256
370
   -1
100
AcDbLine
 10
-8.000000000000004
 20
-10.5
 11
-3.000000000000004
 21
-10.5
  0
LINE
  5
24B
100
AcDbEntity
  8
leds 2mm ED
  6
ByLayer
 62
  256
370
   -1
100
AcDbLine
 10
-5.500000000000004
 20
-8
 11
-5.500000000000004
 21
-13
  0
LINE
  5
24C
100
AcDbEntity
  8
leds 2mm ED
  6
ByLayer
 62
  256
370
   -1
100
AcDbLine
 10
-8.000000000000004
 20
-3.5
 11
-3.000000000000004
 21
-3.5
  0
LINE
  5
24D
100
AcDbEntity
  8
leds 2mm ED
  6
ByLayer
 62
  256
370
   -1
100
AcDbLine
 10
-5.500000000000004
 20
-1
 11
-5.500000000000004
 21
-6
  0
CIRCLE
  5
24E
100
AcDbEntity
  8
leds 2mm ED
  6
ByLayer
 62
  256
370
   -1
100
AcDbCircle
 10
5.5
 20
-17.5
 40
2.5
  0
CIRCLE
  5
24F
100
AcDbEntity
  8
leds 2mm ED
  6
ByLayer
 62
  256
370
   -1
100
AcDbCircle
 10
5.5
 20
-10.5
 40
2.5
  0
CIRCLE
  5
250
100
AcDbEntity
  8
leds 2mm ED
  6
ByLayer
 62
  256
370
   -1
100
AcDbCircle
 10
5.5
 20
-3.5
 40
2.5
  0
CIRCLE
  5
251
100
AcDbEntity
  8
leds 2mm ED
  6
ByLayer
 62
  256
370
   -1
100
AcDbCircle
 10
5.5
 20
3.5
 40
2.5
  0
CIRCLE
  5
252
100
AcDbEntity
  8
leds 2mm ED
  6
ByLayer
 62
  256
370
   -1
100
AcDbCircle
 10
5.5
 20
10.5
 40
2.5
  0
CIRCLE
  5
253
100
AcDbEntity
  8
leds 2mm ED
  6
ByLayer
 62
  256
370
   -1
100
AcDbCircle
 10
5.5
 20
17.5
 40
2.5
  0
CIRCLE
  5
254
100
AcDbEntity
  8
leds 2mm ED
  6
ByLayer
 62
  256
370
   -1
100
AcDbCircle
 10
11.562
 20
0
 40
2.5
  0
CIRCLE
  5
255
100
AcDbEntity
  8
leds 2mm ED
  6
ByLayer
 62
  256
370
   -1
100
AcDbCircle
 10
18.562
 20
0
 40
2.5
  0
CIRCLE
  5
256
100
AcDbEntity
  8
leds 2mm ED
  6
ByLayer
 62
  256
370
   -1
100
AcDbCircle
 10
25.562
 20
0
 40
2.5
  0
CIRCLE
  5
257
100
AcDbEntity
  8
leds 2mm ED
  6
ByLayer
 62
  256
370
   -1
100
AcDbCircle
 10
11.562
 20
-21
 40
2.5
  0
CIRCLE
  5
258
100
AcDbEntity
  8
leds 2mm ED
  6
ByLayer
 62
  256
370
   -1
100
AcDbCircle
 10
18.562
 20
-21
 40
2.5
  0
CIRCLE
  5
259
100
AcDbEntity
  8
leds 2mm ED
  6
ByLayer
 62
  256
370
   -1
100
AcDbCircle
 10
25.562
 20
-21
 40
2.5
  0
CIRCLE
  5
25A
100
AcDbEntity
  8
leds 2mm ED
  6
ByLayer
 62
  256
370
   -1
100
AcDbCircle
 10
11.562
 20
21
 40
2.5
  0
CIRCLE
  5
25B
100
AcDbEntity
  8
leds 2mm ED
  6
ByLayer
 62
  256
370
   -1
100
AcDbCircle
 10
18.562
 20
21
 40
2.5
  0
CIRCLE
  5
25C
100
AcDbEntity
  8
leds 2mm ED
  6
ByLayer
 62
  256
370
   -1
100
AcDbCircle
 10
25.562
 20
21
 40
2.5
  0
CIRCLE
  5
25D
100
AcDbEntity
  8
leds 2mm ED
  6
ByLayer
 62
  256
370
   -1
100
AcDbCircle
 10
31.624
 20
-17.5
 40
2.5
  0
CIRCLE
  5
25E
100
AcDbEntity
  8
leds 2mm ED
  6
ByLayer
 62
  256
370
   -1
100
AcDbCircle
 10
31.624
 20
-10.5
 40
2.5
  0
CIRCLE
  5
25F
100
AcDbEntity
  8
leds 2mm ED
  6
ByLayer
 62
  256
370
   -1
100
AcDbCircle
 10
31.624
 20
-3.5
 40
2.5
  0
CIRCLE
  5
260
100
AcDbEntity
  8
leds 2mm ED
  6
ByLayer
 62
  256
370
   -1
100
AcDbCircle
 10
31.624
 20
3.5
 40
2.5
  0
CIRCLE
  5
261
100
AcDbEntity
  8
leds 2mm ED
  6
ByLayer
 62
  256
370
   -1
100
AcDbCircle
 10
31.624
 20
10.5
 40
2.5
  0
CIRCLE
  5
262
100
AcDbEntity
  8
leds 2mm ED
  6
ByLayer
 62
  256
370
   -1
100
AcDbCircle
 10
31.624
 20
17.5
 40
2.5
  0
LINE
  5
263
100
AcDbEntity
  8
leds 2mm ED
  6
ByLayer
 62
  256
370
   -1
100
AcDbLine
 10
9.062000000000001
 20
21
 11
14.062
 21
21
  0
LINE
  5
264
100
AcDbEntity
  8
leds 2mm ED
  6
ByLayer
 62
  256
370
   -1
100
AcDbLine
 10
11.562
 20
23.5
 11
11.562
 21
18.5
  0
LINE
  5
265
100
AcDbEntity
  8
leds 2mm ED
  6
ByLayer
 62
  256
370
   -1
100
AcDbLine
 10
18.562
 20
23.5
 11
18.562
 21
18.5
  0
LINE
  5
266
100
AcDbEntity
  8
leds 2mm ED
  6
ByLayer
 62
  256
370
   -1
100
AcDbLine
 10
16.062
 20
21
 11
21.062
 21
21
  0
LINE
  5
267
100
AcDbEntity
  8
leds 2mm ED
  6
ByLayer
 62
  256
370
   -1
100
AcDbLine
 10
23.062
 20
21
 11
28.062
 21
21
  0
LINE
  5
268
100
AcDbEntity
  8
leds 2mm ED
  6
ByLayer
 62
  256
370
   -1
100
AcDbLine
 10
25.562
 20
23.5
 11
25.562
 21
18.5
  0
LINE
  5
269
100
AcDbEntity
  8
leds 2mm ED
  6
ByLayer
 62
  256
370
   -1
100
AcDbLine
 10
29.124
 20
17.5
 11
34.124
 21
17.5
  0
LINE
  5
26A
100
AcDbEntity
  8
leds 2mm ED
  6
ByLayer
 62
  256
370
   -1
100
AcDbLine
 10
31.624
 20
20
 11
31.624
 21
15
  0
LINE
  5
26B
100
AcDbEntity
  8
leds 2mm ED
  6
ByLayer
 62
  256
370
   -1
100
AcDbLine
 10
29.124
 20
10.5
 11
34.124
 21
10.5
  0
LINE
  5
26C
100
AcDbEntity
  8
leds 2mm ED
  6
ByLayer
 62
  256
370
   -1
100
AcDbLine
 10
31.624
 20
13
 11
31.624
 21
8
  0
LINE
  5
26D
100
AcDbEntity
  8
leds 2mm ED
  6
ByLayer
 62
  256
370
   -1
100
AcDbLine
 10
5.5
 20
20
 11
5.5
 21
15
  0
LINE
  5
26E
100
AcDbEntity
  8
leds 2mm ED
  6
ByLayer
 62
  256
370
   -1
100
AcDbLine
 10
3
 20
17.5
 11
8
 21
17.5
  0
LINE
  5
26F
100
AcDbEntity
  8
leds 2mm ED
  6
ByLayer
 62
  256
370
   -1
100
AcDbLine
 10
5.5
 20
13
 11
5.5
 21
8
  0
LINE
  5
270
100
AcDbEntity
  8
leds 2mm ED
  6
ByLayer
 62
  256
370
   -1
100
AcDbLine
 10
3
 20
10.5
 11
8
 21
10.5
  0
LINE
  5
271
100
AcDbEntity
  8
leds 2mm ED
  6
ByLayer
 62
  256
370
   -1
100
AcDbLine
 10
5.5
 20
6
 11
5.5
 21
1
  0
LINE
  5
272
100
AcDbEntity
  8
leds 2mm ED
  6
ByLayer
 62
  256
370
   -1
100
AcDbLine
 10
3
 20
3.5
 11
8
 21
3.5
  0
LINE
  5
273
100
AcDbEntity
  8
leds 2mm ED
  6
ByLayer
 62
  256
370
   -1
100
AcDbLine
 10
11.562
 20
2.5
 11
11.562
 21
-2.5
  0
LINE
  5
274
100
AcDbEntity
  8
leds 2mm ED
  6
ByLayer
 62
  256
370
   -1
100
AcDbLine
 10
9.062000000000001
 20
3.061515884555943e-016
 11
14.062
 21
-6.123031769111886e-016
  0
LINE
  5
275
100
AcDbEntity
  8
leds 2mm ED
  6
ByLayer
 62
  256
370
   -1
100
AcDbLine
 10
16.062
 20
3.061515884555943e-016
 11
21.062
 21
0
  0
LINE
  5
276
100
AcDbEntity
  8
leds 2mm ED
  6
ByLayer
 62
  256
370
   -1
100
AcDbLine
 10
18.562
 20
2.5
 11
18.562
 21
-2.5
  0
LINE
  5
277
100
AcDbEntity
  8
leds 2mm ED
  6
ByLayer
 62
  256
370
   -1
100
AcDbLine
 10
23.062
 20
3.061515884555943e-016
 11
28.062
 21
-6.123031769111886e-016
  0
LINE
  5
278
100
AcDbEntity
  8
leds 2mm ED
  6
ByLayer
 62
  256
370
   -1
100
AcDbLine
 10
25.562
 20
2.5
 11
25.562
 21
-2.5
  0
LINE
  5
279
100
AcDbEntity
  8
leds 2mm ED
  6
ByLayer
 62
  256
370
   -1
100
AcDbLine
 10
29.124
 20
3.5
 11
34.124
 21
3.5
  0
LINE
  5
27A
100
AcDbEntity
  8
leds 2mm ED
  6
ByLayer
 62
  256
370
   -1
100
AcDbLine
 10
31.624
 20
6
 11
31.624
 21
1
  0
LINE
  5
27B
100
AcDbEntity
  8
leds 2mm ED
  6
ByLayer
 62
  256
370
   -1
100
AcDbLine
 10
5.5
 20
-1
 11
5.5
 21
-6
  0
LINE
  5
27C
100
AcDbEntity
  8
leds 2mm ED
  6
ByLayer
 62
  256
370
   -1
100
AcDbLine
 10
3
 20
-3.5
 11
8
 21
-3.5
  0
LINE
  5
27D
100
AcDbEntity
  8
leds 2mm ED
  6
ByLayer
 62
  256
370
   -1
100
AcDbLine
 10
5.5
 20
-8
 11
5.5
 21
-13
  0
LINE
  5
27E
100
AcDbEntity
  8
leds 2mm ED
  6
ByLayer
 62
  256
370
   -1
100
AcDbLine
 10
3
 20
-10.5
 11
8
 21
-10.5
  0
LINE
  5
27F
100
AcDbEntity
  8
leds 2mm ED
  6
ByLayer
 62
  256
370
   -1
100
AcDbLine
 10
5.5
 20
-15
 11
5.5
 21
-20
  0
LINE
  5
280
100
AcDbEntity
  8
leds 2mm ED
  6
ByLayer
 62
  256
370
   -1
100
AcDbLine
 10
3
 20
-17.5
 11
8
 21
-17.5
  0
LINE
  5
281
100
AcDbEntity
  8
leds 2mm ED
  6
ByLayer
 62
  256
370
   -1
100
AcDbLine
 10
9.062000000000001
 20
-21
 11
14.062
 21
-21
  0
LINE
  5
282
100
AcDbEntity
  8
leds 2mm ED
  6
ByLayer
 62
  256
370
   -1
100
AcDbLine
 10
11.562
 20
-18.5
 11
11.562
 21
-23.5
  0
LINE
  5
283
100
AcDbEntity
  8
leds 2mm ED
  6
ByLayer
 62
  256
370
   -1
100
AcDbLine
 10
16.062
 20
-21
 11
21.062
 21
-21
  0
LINE
  5
284
100
AcDbEntity
  8
leds 2mm ED
  6
ByLayer
 62
  256
370
   -1
100
AcDbLine
 10
18.562
 20
-18.5
 11
18.562
 21
-23.5
  0
LINE
  5
285
100
AcDbEntity
  8
leds 2mm ED
  6
ByLayer
 62
  256
370
   -1
100
AcDbLine
 10
23.062
 20
-21
 11
28.062
 21
-21
  0
LINE
  5
286
100
AcDbEntity
  8
leds 2mm ED
  6
ByLayer
 62
  256
370
   -1
100
AcDbLine
 10
25.562
 20
-18.5
 11
25.562
 21
-23.5
  0
LINE
  5
287
100
AcDbEntity
  8
leds 2mm ED
  6
ByLayer
 62
  256
370
   -1
100
AcDbLine
 10
29.124
 20
-17.5
 11
34.124
 21
-17.5
  0
LINE
  5
288
100
AcDbEntity
  8
leds 2mm ED
  6
ByLayer
 62
  256
370
   -1
100
AcDbLine
 10
31.624
 20
-15
 11
31.624
 21
-20
  0
LINE
  5
289
100
AcDbEntity
  8
leds 2mm ED
  6
ByLayer
 62
  256
370
   -1
100
AcDbLine
 10
29.124
 20
-10.5
 11
34.124
 21
-10.5
  0
LINE
  5
28A
100
AcDbEntity
  8
leds 2mm ED
  6
ByLayer
 62
  256
370
   -1
100
AcDbLine
 10
31.624
 20
-8
 11
31.624
 21
-13
  0
LINE
  5
28B
100
AcDbEntity
  8
leds 2mm ED
  6
ByLayer
 62
  256
370
   -1
100
AcDbLine
 10
29.124
 20
-3.5
 11
34.124
 21
-3.5
  0
LINE
  5
28C
100
AcDbEntity
  8
leds 2mm ED
  6
ByLayer
 62
  256
370
   -1
100
AcDbLine
 10
31.624
 20
-1
 11
31.624
 21
-6
  0
LWPOLYLINE
  5
28D
100
AcDbEntity
  8
frame 156mm
  6
ByLayer
 62
  256
370
   -1
100
AcDbPolyline
 90
    4
 70
    1
 43
0
 10
-126
 20
-78
 10
126
 20
-78
 10
126
 20
78
 10
-126
 20
78
  0
LWPOLYLINE
  5
28E
100
AcDbEntity
  8
frame 156mm
  6
ByLayer
 62
  256
370
   -1
100
AcDbPolyline
 90
    4
 70
    1
 43
0
 10
-108
 20
-60
 10
108
 20
-60
 10
108
 20
60
 10
-108
 20
60
  0
LWPOLYLINE
  5
28F
100
AcDbEntity
  8
frame 156mm
  6
ByLayer
 62
  256
370
   -1
100
AcDbPolyline
 90
    4
 70
    1
 43
0
 10
-107
 20
-59
 10
107
 20
-59
 10
107
 20
59
 10
-107
 20
59
  0
DIMENSION
  5
290
100
AcDbEntity
  8
dim frame 156mm
  6
ByLayer
 62
  256
370
   -1
100
AcDbDimension
  2
*D13
 10
126
 20
83.69873117316493
 30
0
 11
2.870171141771197e-016
 21
88.38623117316493
 31
0
 70
   33
 71
    5
 72
    0
  3
Standard
 53
0
210
0
220
0
230
1
100
AcDbAlignedDimension
 13
-126
 23
78
 33
0
 14
126
 24
78
 34
0
  0
DIMENSION
  5
291
100
AcDbEntity
  8
dim frame 156mm
  6
ByLayer
 62
  256
370
   -1
100
AcDbDimension
  2
*D14
 10
132.04456867391
 20
-78
 30
0
 11
127.35706867391
 21
5.740342283542393e-016
 31
0
 70
   33
 71
    5
 72
    0
  3
Standard
 53
0
210
0
220
0
230
1
100
AcDbAlignedDimension
 13
126
 23
78
 33
0
 14
126
 24
-78
 34
0
  0
DIMENSION
  5
292
100
AcDbEntity
  8
dim frame 156mm
  6
ByLayer
 62
  256
370
   -1
100
AcDbDimension
  2
*D15
 10
113.9148796111306
 20
-60
 30
0
 11
109.2273796111306
 21
5.740342283542393e-016
 31
0
 70
   33
 71
    5
 72
    0
  3
Standard
 53
0
210
0
220
0
230
1
100
AcDbAlignedDimension
 13
108
 23
60
 33
0
 14
108
 24
-60
 34
0
  0
DIMENSION
  5
293
100
AcDbEntity
  8
dim frame 156mm
  6
ByLayer
 62
  256
370
   -1
100
AcDbDimension
  2
*D16
 10
113.9317977109821
 20
78
 30
0
 11
109.2442977109821
 21
69
 31
0
 70
   33
 71
    5
 72
    0
  3
Standard
 53
0
210
0
220
0
230
1
100
AcDbAlignedDimension
 13
108
 23
60
 33
0
 14
108
 24
78
 34
0
  0
DIMENSION
  5
294
100
AcDbEntity
  8
dim frame 140mm
  6
ByLayer
 62
  256
370
   -1
100
AcDbDimension
  2
*D17
 10
108.8413043781489
 20
60
 30
0
 11
104.1538043781489
 21
5.740342283542393e-016
 31
0
 70
   33
 71
    5
 72
    0
  3
Standard
 53
0
210
0
220
0
230
1
100
AcDbAlignedDimension
 13
103
 23
-60
 33
0
 14
103
 24
60
 34
0
  0
DIMENSION
  5
295
100
AcDbEntity
  8
dim frame 140mm
  6
ByLayer
 62
  256
370
   -1
100
AcDbDimension
  2
*D18
 10
108.8778460418028
 20
70
 30
0
 11
104.1903460418028
 21
65
 31
0
 70
   33
 71
    5
 72
    0
  3
Standard
 53
0
210
0
220
0
230
1
100
AcDbAlignedDimension
 13
103
 23
60
 33
0
 14
103
 24
70
 34
0
  0
ENDSEC
  0
SECTION
  2
OBJECTS
  0
DICTIONARY
  5
C
330
0
100
AcDbDictionary
281
    1
  3
ACAD_GROUP
350
D
  0
DICTIONARY
  5
D
330
C
100
AcDbDictionary
281
    1
  0
ENDSEC
  0
EOF
